<svg width="26" height="25" viewBox="0 0 26 25" fill="none" xmlns="http://www.w3.org/2000/svg">
<path d="M13.1843 19.6962C12.8665 19.5044 12.4686 19.5044 12.1508 19.6962L5.61741 23.6395L7.35122 16.2074C7.43555 15.8459 7.31271 15.4674 7.03214 15.2244L1.25909 10.2232L8.85996 9.57832C9.22954 9.54696 9.55139 9.31362 9.69613 8.97213L12.6676 1.96118L15.639 8.97212C15.7838 9.31362 16.1056 9.54696 16.4752 9.57832L24.0761 10.2232L18.303 15.2244C18.0225 15.4674 17.8996 15.8459 17.984 16.2074L19.7178 23.6395L13.1843 19.6962Z" fill="#FFDD00"/>
<path d="M7.03214 15.2244C7.31271 15.4674 7.43555 15.8459 7.35122 16.2074L5.61741 23.6395L12.1508 19.6962C12.4686 19.5044 12.8665 19.5044 13.1843 19.6962L19.7178 23.6395L17.984 16.2074C17.8996 15.8459 18.0225 15.4674 18.303 15.2244L24.0761 10.2232L16.4752 9.57832C16.1056 9.54696 15.7838 9.31362 15.639 8.97212L12.6676 1.96118L9.69613 8.97213C9.55139 9.31362 9.22954 9.54696 8.85996 9.57832L1.25909 10.2232L7.03214 15.2244ZM7.03214 15.2244L6.70476 15.6023" stroke="black"/>
</svg>
