<svg width="23" height="27" viewBox="0 0 23 27" fill="none" xmlns="http://www.w3.org/2000/svg">
<path d="M15.9134 22.0106H7.02414C3.40575 22.0057 0.473639 19.0736 0.46875 15.4558V6.5654C0.473639 2.94701 3.40575 0.0161194 7.02414 0.0112305H15.9134C19.5317 0.0161194 22.4632 2.94701 22.4688 6.5654V15.4558C22.4632 19.0736 19.5317 22.0057 15.9134 22.0106ZM20.2535 6.5654C20.2553 4.16923 18.315 2.22467 15.9183 2.22162C15.917 2.22162 15.9158 2.22162 15.9134 2.22162H7.02414C4.62736 2.22162 2.68464 4.16434 2.68464 6.56051V15.4558C2.68464 17.852 4.62736 19.7947 7.02414 19.7947H15.9134C18.3101 19.7947 20.2535 17.852 20.2535 15.4558V6.5654ZM17.1716 6.72673C16.4084 6.72673 15.7893 6.10829 15.7893 5.34501C15.7893 4.58173 16.4084 3.96267 17.1716 3.96267C17.9343 3.96267 18.5534 4.58173 18.5534 5.34501C18.5534 6.10829 17.9343 6.72673 17.1716 6.72673ZM11.4688 16.6988C8.32703 16.6988 5.77992 14.1523 5.77992 11.0106C5.77992 7.8689 8.32703 5.32179 11.4688 5.32179C14.6105 5.32179 17.1576 7.8689 17.1576 11.0106C17.1527 14.1505 14.6086 16.6946 11.4688 16.6988ZM11.4688 7.53279C9.54803 7.53279 7.99092 9.0899 7.99092 11.0106C7.99092 12.9313 9.54803 14.4885 11.4688 14.4885C13.3895 14.4885 14.9466 12.9313 14.9466 11.0106C14.9466 9.0899 13.3895 7.53279 11.4688 7.53279Z" fill="black"/>
</svg>
