<svg width="23" height="27" viewBox="0 0 23 27" fill="none" xmlns="http://www.w3.org/2000/svg">
<path d="M12.1354 0.0126984C6.13304 0.0126984 3.1062 4.31798 3.1062 7.9052C3.1062 10.0814 3.9312 12.0125 5.69242 12.7324C5.9827 12.8503 6.24242 12.7391 6.32615 12.4189C6.3842 12.1952 6.5217 11.6348 6.58403 11.4008C6.6702 11.0873 6.63537 10.9754 6.40376 10.698C5.8947 10.0985 5.5702 9.3187 5.5702 8.2187C5.5702 5.02625 7.95903 2.16687 11.7913 2.16687C15.1854 2.16687 17.0505 4.2422 17.0505 7.00931C17.0505 10.6528 15.4372 13.7273 13.0441 13.7273C11.721 13.7273 10.7323 12.634 11.0506 11.2932C11.4308 9.69086 12.1653 7.96325 12.1653 6.80948C12.1653 5.77425 11.6092 4.91259 10.4615 4.91259C9.11037 4.91259 8.0232 6.30898 8.0232 8.18203C8.0232 9.37675 8.42898 10.1822 8.42898 10.1822C8.42898 10.1822 7.04359 16.0428 6.80281 17.0676C6.31942 19.1105 6.72948 21.6179 6.76615 21.8709C6.7857 22.0194 6.97698 22.0579 7.06498 21.9443C7.18965 21.7811 8.80053 19.7919 9.34626 17.8064C9.50331 17.2436 10.2354 14.3371 10.2354 14.3371C10.676 15.1725 11.9563 15.9095 13.3228 15.9095C17.3854 15.9095 20.1391 12.208 20.1391 7.24764C20.1348 3.50092 16.9595 0.0102539 12.1348 0.0102539L12.1354 0.0126984Z" fill="black"/>
</svg>
