<svg width="23" height="27" viewBox="0 0 23 27" fill="none" xmlns="http://www.w3.org/2000/svg">
<path d="M16.3966 14.8699C15.7971 13.9954 15.1934 13.1209 14.5939 12.2457C13.9901 11.367 13.3832 10.4851 12.7795 9.60636C12.7336 9.53792 12.6805 9.47253 12.6267 9.3998C12.7795 9.22014 12.9249 9.0368 13.0777 8.86142C13.5739 8.28453 14.0707 7.71192 14.5676 7.13503C14.831 6.82947 15.0944 6.52758 15.3584 6.22569C16.0074 5.46914 16.657 4.71319 17.3066 3.95297C17.8297 3.34186 18.3528 2.73075 18.8765 2.11964C18.8765 2.11597 18.8802 2.11597 18.8802 2.1123H17.4367C17.3145 2.25347 17.196 2.39097 17.0737 2.53275C16.4437 3.26242 15.8136 3.99208 15.183 4.72114C14.7362 5.23692 14.2932 5.75636 13.8459 6.2758C13.533 6.6388 13.2231 7.0018 12.9102 7.36847C12.6236 7.70092 12.3413 8.03703 12.0584 8.36947C12.0394 8.39269 12.0315 8.42325 12.0125 8.46847C11.9398 8.3768 11.894 8.32303 11.8561 8.26619C11.7455 8.10975 11.6385 7.9533 11.5316 7.79258C10.8746 6.83803 10.2214 5.88286 9.56441 4.92769C8.92275 3.99208 8.27741 3.05647 7.63941 2.12025C7.63941 2.11658 7.63575 2.11658 7.63575 2.11292H2.55619C2.81591 2.48692 3.07563 2.85786 3.33536 3.23614C3.8053 3.91997 4.27097 4.60747 4.74091 5.29069C5.29825 6.10042 5.85619 6.90647 6.40986 7.71192C7.03625 8.62492 7.66263 9.54158 8.28902 10.4546C8.56036 10.8481 8.82741 11.2454 9.09875 11.6389C9.14825 11.7116 9.13663 11.7648 9.08347 11.8259C8.98019 11.9365 8.87691 12.0471 8.78158 12.162C8.37702 12.632 7.9798 13.1056 7.57463 13.5749C6.99041 14.2545 6.40191 14.9346 5.81402 15.6148C5.38258 16.1153 4.9548 16.6158 4.52702 17.1157C3.85847 17.8912 3.19419 18.6704 2.52563 19.4452H3.96175C4.50013 18.8189 5.0428 18.1925 5.58119 17.5661C6.13852 16.9244 6.69647 16.2791 7.25013 15.6374C7.70847 15.1064 8.16313 14.5753 8.6178 14.0449C8.88547 13.732 9.15619 13.4221 9.42752 13.1129C9.5308 12.9944 9.6298 12.8721 9.73675 12.7579C9.80519 12.6851 9.83575 12.6967 9.89319 12.7768C10.2446 13.2926 10.596 13.8041 10.9474 14.3162C11.6196 15.2976 12.2881 16.2791 12.9604 17.2569C13.4071 17.9059 13.8538 18.5518 14.3011 19.1971C14.3586 19.2815 14.416 19.3615 14.4771 19.4452H19.5249C19.0476 18.7461 18.5777 18.047 18.1004 17.3522C17.5309 16.5241 16.9619 15.6991 16.3966 14.8699ZM17.5192 18.4607C17.4814 18.4607 17.4429 18.4607 17.4044 18.4607C16.7132 18.4607 16.0257 18.4571 15.3339 18.4607C15.2349 18.4607 15.1775 18.4455 15.1164 18.3459C14.9294 18.0476 14.7191 17.769 14.5169 17.4787C14.1618 16.9666 13.8067 16.4551 13.4474 15.9472C12.9659 15.2597 12.4849 14.5759 12.004 13.8927C11.5035 13.1783 11.0072 12.4682 10.5067 11.7538C10.1059 11.1769 9.70863 10.5964 9.30347 10.0195C8.72291 9.18714 8.13502 8.35786 7.55447 7.52919C7.20308 7.02869 6.85536 6.52453 6.50397 6.02036C5.93075 5.20269 5.3618 4.38564 4.78919 3.56858C4.70486 3.44636 4.62113 3.3278 4.53741 3.20558C4.51847 3.17869 4.50319 3.14447 4.4763 3.09069C4.5643 3.09069 4.62175 3.09069 4.68286 3.09069C5.3783 3.09069 6.0768 3.08703 6.77225 3.08336C6.83336 3.08336 6.85658 3.1023 6.88713 3.1518C7.07047 3.41947 7.25747 3.68286 7.44447 3.94992C7.79219 4.45042 8.14358 4.95092 8.49069 5.44714C8.96797 6.12669 9.44525 6.80686 9.91947 7.48703C10.3509 8.10547 10.7787 8.72453 11.2101 9.34358C11.7717 10.1496 12.337 10.9514 12.898 11.7538C13.4364 12.5214 13.9675 13.2932 14.5059 14.0607C15.1322 14.9542 15.7586 15.8482 16.385 16.7423C16.7285 17.2312 17.0725 17.7237 17.4166 18.2163C17.4624 18.2847 17.5009 18.3617 17.5425 18.4339C17.5345 18.4412 17.5272 18.4491 17.5192 18.4607Z" fill="black"/>
</svg>
