<svg width="23" height="27" viewBox="0 0 23 27" fill="none" xmlns="http://www.w3.org/2000/svg">
<path d="M20.7096 18.5745C17.5298 19.0328 14.5506 19.262 11.7721 19.262C10.5405 19.262 9.17976 19.2047 7.68987 19.0902C6.19998 18.9758 5.0183 18.8613 4.14482 18.7468L2.83398 18.5751C2.44735 18.5034 2.10717 18.2349 1.81343 17.7696C1.51969 17.3044 1.30478 16.7421 1.16871 16.083C1.03263 15.4238 0.93241 14.808 0.86804 14.2356C0.80367 13.6632 0.771484 13.1405 0.771484 12.6675V9.3589C0.771484 5.7065 1.45898 3.73709 2.83398 3.45068C6.0138 2.99235 8.99297 2.76318 11.7715 2.76318C13.0031 2.76318 14.3638 2.82042 15.8537 2.93491C17.3436 3.04939 18.5253 3.16387 19.3988 3.27835L20.7096 3.45007C21.1252 3.50752 21.4796 3.76887 21.7729 4.23413C22.0663 4.69939 22.2775 5.26874 22.4067 5.94218C22.5358 6.61563 22.6289 7.23142 22.6859 7.78957C22.743 8.34772 22.7717 8.87042 22.7721 9.35768V12.6662C22.7721 13.182 22.7507 13.7047 22.7079 14.2343C22.6652 14.764 22.5792 15.3726 22.45 16.0603C22.3209 16.7481 22.106 17.3209 21.8053 17.7788C21.5047 18.2367 21.1394 18.5017 20.7096 18.5738V18.5745ZM15.6606 10.4754L10.0317 7.03791C9.87398 6.8945 9.66621 6.85518 9.40832 6.91996C9.15043 6.98474 9.02148 7.08863 9.02148 7.23163V14.7941C9.02148 14.9518 9.15043 15.0591 9.40832 15.1162C9.66621 15.1732 9.87398 15.1302 10.0317 14.9872L15.6606 11.5497C15.8183 11.4063 15.8971 11.2273 15.8971 11.0126C15.8971 10.7979 15.8183 10.6188 15.6606 10.4754Z" fill="black"/>
</svg>
