<svg width="48.000000" height="48.000000" viewBox="0 0 48 48" fill="none" xmlns="http://www.w3.org/2000/svg" xmlns:xlink="http://www.w3.org/1999/xlink">
	<desc>
			Created with Pixso.
	</desc>
	<defs/>
	<path id="Vector" d="M25.72 17.05L25.72 30.91C25.74 31.21 25.87 31.49 26.1 31.69C26.33 31.89 26.63 32 26.93 31.98L46.66 31.98L46.66 15.99L26.93 15.99C26.63 15.97 26.33 16.07 26.1 16.27C25.88 16.47 25.74 16.75 25.72 17.05ZM45.07 27.48L43.47 30.89C43.44 30.96 43.38 31.02 43.32 31.06C43.25 31.1 43.17 31.13 43.1 31.13C43.02 31.13 42.94 31.1 42.87 31.06C42.81 31.02 42.76 30.96 42.72 30.89L41.12 27.48C41.09 27.42 41.08 27.35 41.08 27.28C41.09 27.21 41.11 27.14 41.15 27.08C41.18 27.02 41.24 26.98 41.3 26.94C41.36 26.91 41.42 26.89 41.49 26.89L44.69 26.89C44.76 26.89 44.83 26.91 44.89 26.94C44.96 26.98 45.01 27.02 45.05 27.08C45.08 27.14 45.11 27.21 45.11 27.28C45.12 27.35 45.11 27.42 45.08 27.48L45.07 27.48ZM45.09 25.74C45.05 25.79 45 25.84 44.94 25.87C44.88 25.91 44.81 25.92 44.74 25.92L41.54 25.92C41.47 25.92 41.4 25.91 41.34 25.87C41.28 25.84 41.23 25.79 41.19 25.74C41.15 25.68 41.13 25.61 41.13 25.54C41.12 25.47 41.14 25.4 41.17 25.34L42.77 21.93C42.8 21.86 42.85 21.8 42.92 21.76C42.99 21.72 43.06 21.69 43.14 21.69C43.22 21.69 43.3 21.72 43.36 21.76C43.43 21.8 43.48 21.86 43.52 21.93L45.12 25.34C45.15 25.4 45.16 25.47 45.16 25.54C45.16 25.61 45.14 25.67 45.1 25.74L45.09 25.74ZM41.68 18.42C41.68 18.19 41.72 17.96 41.82 17.75C41.9 17.54 42.03 17.35 42.19 17.19C42.52 16.87 42.96 16.68 43.42 16.68C43.88 16.68 44.32 16.87 44.65 17.19C44.73 17.27 44.77 17.37 44.77 17.48C44.77 17.59 44.73 17.7 44.65 17.78C44.58 17.86 44.47 17.9 44.36 17.9C44.25 17.9 44.15 17.86 44.07 17.78C43.99 17.69 43.89 17.63 43.78 17.58C43.66 17.53 43.54 17.51 43.42 17.51C43.3 17.51 43.18 17.53 43.06 17.58C42.95 17.63 42.85 17.69 42.77 17.78C42.69 17.86 42.62 17.96 42.57 18.07C42.53 18.18 42.5 18.3 42.5 18.42L42.5 19.2C42.5 19.33 42.53 19.45 42.57 19.56C42.62 19.67 42.69 19.77 42.77 19.85C42.85 19.94 42.95 20 43.06 20.05C43.23 20.12 43.42 20.14 43.59 20.1C43.77 20.07 43.94 19.98 44.06 19.85C44.14 19.77 44.25 19.73 44.36 19.73C44.47 19.73 44.57 19.77 44.65 19.85C44.69 19.89 44.72 19.93 44.74 19.98C44.76 20.03 44.77 20.09 44.77 20.14C44.77 20.2 44.76 20.25 44.74 20.3C44.72 20.35 44.69 20.4 44.65 20.43C44.49 20.6 44.3 20.73 44.1 20.81C43.88 20.9 43.65 20.95 43.42 20.95C43.19 20.95 42.96 20.9 42.74 20.81C42.53 20.72 42.34 20.6 42.19 20.43C42.03 20.28 41.9 20.09 41.81 19.88C41.72 19.67 41.67 19.44 41.68 19.21L41.68 18.42ZM40.41 16.72C40.58 16.72 40.74 16.77 40.89 16.87C41.03 16.97 41.14 17.1 41.21 17.26C41.27 17.42 41.29 17.59 41.26 17.76C41.22 17.93 41.14 18.09 41.02 18.21C40.89 18.33 40.74 18.41 40.57 18.44C40.4 18.48 40.23 18.46 40.07 18.39C39.91 18.32 39.78 18.21 39.68 18.07C39.59 17.93 39.54 17.76 39.54 17.59C39.54 17.47 39.56 17.36 39.6 17.25C39.65 17.15 39.71 17.05 39.8 16.97C39.88 16.89 39.97 16.83 40.08 16.78C40.19 16.74 40.3 16.72 40.41 16.72L40.41 16.72Z" fill="#FFDD00" fill-opacity="1.000000" fill-rule="nonzero"/>
	<path id="Vector" d="M3.51 39.56C2.58 39.56 1.69 39.19 1.03 38.53C0.37 37.87 0 36.98 0 36.04L0 11.95C0 11.01 0.37 10.12 1.03 9.46C1.69 8.8 2.58 8.43 3.51 8.42L44.48 8.42C45.41 8.43 46.31 8.8 46.96 9.46C47.62 10.12 48 11.01 48 11.95L48 36.04C48 36.98 47.62 37.87 46.96 38.53C46.31 39.19 45.41 39.56 44.48 39.56L3.51 39.56ZM3.51 10.19C3.05 10.19 2.61 10.37 2.29 10.7C1.97 11.02 1.78 11.46 1.78 11.92L1.78 36.02C1.78 36.48 1.97 36.92 2.29 37.24C2.61 37.56 3.05 37.75 3.51 37.75L44.48 37.75C44.94 37.75 45.38 37.56 45.7 37.24C46.02 36.92 46.21 36.48 46.21 36.02L46.21 33.26L26.96 33.26C26.31 33.28 25.68 33.04 25.21 32.59C24.74 32.15 24.46 31.53 24.44 30.88L24.44 17.03C24.46 16.38 24.74 15.76 25.21 15.32C25.68 14.87 26.31 14.63 26.96 14.65L46.21 14.65L46.21 11.9C46.21 11.44 46.02 11 45.7 10.67C45.38 10.35 44.94 10.17 44.48 10.17L3.51 10.19ZM26.94 16.46C26.77 16.44 26.59 16.49 26.46 16.6C26.32 16.71 26.23 16.87 26.21 17.04L26.21 30.9C26.23 31.07 26.32 31.23 26.46 31.34C26.59 31.44 26.77 31.5 26.94 31.48L46.18 31.48L46.18 16.46L26.94 16.46Z" fill="#343434" fill-opacity="1.000000" fill-rule="nonzero"/>
	<path id="Vector" d="M12.42 31.91C10.85 31.91 9.32 31.44 8.01 30.57C6.71 29.7 5.69 28.46 5.09 27.01C4.49 25.57 4.34 23.97 4.64 22.43C4.95 20.9 5.7 19.48 6.81 18.37C7.92 17.27 9.33 16.51 10.87 16.21C12.41 15.9 14 16.06 15.45 16.66C16.9 17.26 18.14 18.27 19.01 19.58C19.88 20.88 20.35 22.41 20.35 23.98C20.34 26.08 19.51 28.1 18.02 29.58C16.54 31.07 14.52 31.91 12.42 31.91ZM12.42 18.42C11.32 18.42 10.24 18.74 9.32 19.35C8.41 19.97 7.69 20.84 7.27 21.86C6.85 22.87 6.74 24 6.95 25.08C7.17 26.16 7.7 27.15 8.48 27.93C9.26 28.71 10.25 29.24 11.34 29.45C12.42 29.67 13.54 29.56 14.56 29.13C15.57 28.71 16.44 28 17.05 27.08C17.67 26.16 17.99 25.08 17.99 23.98C17.99 22.5 17.4 21.09 16.36 20.04C15.31 19 13.9 18.42 12.42 18.42Z" fill="#FFDD00" fill-opacity="1.000000" fill-rule="nonzero"/>
	<path id="Vector" d="M12.42 32.73C10.69 32.73 9 32.22 7.56 31.26C6.12 30.3 5 28.93 4.33 27.33C3.67 25.73 3.5 23.97 3.84 22.27C4.17 20.58 5.01 19.02 6.23 17.79C7.45 16.57 9.01 15.73 10.71 15.4C12.41 15.06 14.17 15.23 15.77 15.9C17.37 16.56 18.73 17.68 19.7 19.12C20.66 20.56 21.17 22.25 21.17 23.98C21.17 26.3 20.25 28.53 18.61 30.17C16.97 31.81 14.74 32.73 12.42 32.73ZM12.42 17.02C11.04 17.02 9.69 17.43 8.55 18.2C7.4 18.96 6.51 20.05 5.98 21.32C5.46 22.6 5.32 24 5.59 25.35C5.86 26.7 6.52 27.94 7.5 28.91C8.47 29.89 9.71 30.55 11.06 30.82C12.41 31.09 13.81 30.95 15.09 30.42C16.36 29.89 17.45 29 18.21 27.85C18.98 26.71 19.38 25.36 19.38 23.98C19.38 22.14 18.65 20.37 17.34 19.06C16.04 17.76 14.27 17.02 12.42 17.02L12.42 17.02Z" fill="#343434" fill-opacity="1.000000" fill-rule="nonzero"/>
	<path id="Vector" d="M42.2 20.43C42.35 20.59 42.54 20.72 42.75 20.81C42.97 20.9 43.2 20.94 43.43 20.94C43.66 20.94 43.89 20.9 44.11 20.81C44.31 20.72 44.5 20.6 44.66 20.43C44.7 20.39 44.73 20.35 44.75 20.3C44.77 20.25 44.78 20.2 44.78 20.14C44.78 20.09 44.77 20.03 44.75 19.98C44.73 19.93 44.7 19.89 44.66 19.85C44.58 19.77 44.48 19.73 44.37 19.73C44.26 19.73 44.15 19.77 44.08 19.85C43.95 19.98 43.78 20.07 43.6 20.1C43.43 20.14 43.24 20.12 43.07 20.05C42.96 20 42.86 19.93 42.78 19.85C42.7 19.76 42.63 19.67 42.58 19.56C42.54 19.45 42.51 19.32 42.51 19.2L42.51 18.42C42.51 18.3 42.54 18.18 42.58 18.07C42.63 17.96 42.7 17.86 42.78 17.78C42.86 17.69 42.96 17.62 43.07 17.58C43.19 17.53 43.31 17.51 43.43 17.51C43.55 17.51 43.67 17.53 43.79 17.58C43.9 17.62 44 17.69 44.08 17.78C44.16 17.85 44.26 17.9 44.37 17.9C44.48 17.9 44.59 17.85 44.66 17.78C44.74 17.7 44.78 17.59 44.78 17.48C44.78 17.37 44.74 17.27 44.66 17.19C44.33 16.86 43.89 16.68 43.43 16.68C42.97 16.68 42.53 16.86 42.2 17.19C42.04 17.35 41.91 17.54 41.83 17.74C41.73 17.96 41.69 18.19 41.69 18.42L41.69 19.2C41.69 19.43 41.73 19.66 41.83 19.88C41.91 20.08 42.04 20.27 42.2 20.43Z" fill="#343434" fill-opacity="1.000000" fill-rule="nonzero"/>
	<path id="Vector" d="M40.41 18.45C40.59 18.45 40.75 18.4 40.9 18.31C41.04 18.21 41.15 18.08 41.22 17.92C41.28 17.76 41.3 17.58 41.27 17.42C41.23 17.25 41.15 17.09 41.03 16.97C40.91 16.85 40.75 16.77 40.58 16.73C40.42 16.7 40.24 16.72 40.08 16.78C39.92 16.85 39.79 16.96 39.69 17.1C39.6 17.25 39.55 17.41 39.55 17.59C39.55 17.7 39.57 17.81 39.61 17.92C39.66 18.02 39.72 18.12 39.8 18.2C39.88 18.28 39.98 18.34 40.08 18.39C40.19 18.43 40.3 18.45 40.41 18.45ZM40.41 17.27C40.48 17.27 40.54 17.29 40.59 17.33C40.64 17.36 40.68 17.41 40.7 17.47C40.73 17.53 40.73 17.59 40.72 17.65C40.71 17.71 40.68 17.77 40.63 17.81C40.59 17.85 40.53 17.88 40.47 17.9C40.41 17.91 40.35 17.9 40.29 17.88C40.23 17.85 40.18 17.81 40.15 17.76C40.12 17.71 40.1 17.65 40.1 17.59C40.1 17.5 40.13 17.42 40.19 17.36C40.25 17.31 40.33 17.27 40.41 17.27Z" fill="#343434" fill-opacity="1.000000" fill-rule="nonzero"/>
	<path id="Vector" d="M43.15 21.69C43.07 21.69 43 21.71 42.93 21.76C42.86 21.8 42.81 21.86 42.78 21.93L41.18 25.34C41.15 25.4 41.13 25.47 41.14 25.54C41.14 25.61 41.16 25.68 41.2 25.74C41.24 25.79 41.29 25.84 41.35 25.87C41.41 25.91 41.48 25.92 41.55 25.92L44.75 25.92C44.82 25.92 44.89 25.91 44.95 25.87C45.01 25.84 45.06 25.79 45.1 25.74C45.14 25.68 45.16 25.61 45.16 25.54C45.17 25.47 45.16 25.4 45.13 25.34L43.55 21.93C43.51 21.86 43.46 21.8 43.39 21.75C43.32 21.71 43.23 21.69 43.15 21.69ZM42.19 25.1L43.15 23.08L44.12 25.1L42.19 25.1Z" fill="#343434" fill-opacity="1.000000" fill-rule="nonzero"/>
	<path id="Vector" d="M44.7 26.89L41.5 26.89C41.43 26.89 41.37 26.91 41.31 26.94C41.25 26.98 41.19 27.02 41.16 27.08C41.12 27.14 41.1 27.21 41.09 27.28C41.09 27.35 41.1 27.42 41.13 27.48L42.73 30.89C42.77 30.96 42.82 31.02 42.88 31.06C42.95 31.1 43.03 31.13 43.11 31.13C43.18 31.13 43.26 31.1 43.33 31.06C43.39 31.02 43.45 30.96 43.48 30.89L45.08 27.48C45.11 27.42 45.13 27.35 45.13 27.28C45.13 27.21 45.11 27.14 45.08 27.08C45.04 27.02 44.98 26.97 44.92 26.94C44.85 26.9 44.78 26.89 44.7 26.89ZM43.1 29.74L42.14 27.72L44.04 27.72L43.1 29.74Z" fill="#343434" fill-opacity="1.000000" fill-rule="nonzero"/>
	<path id="Vector" d="M33.74 20.97L33.74 21.81L30.82 27.86L29.45 27.86L32.34 22.07L29.09 22.07L29.09 20.97L33.74 20.97Z" fill="#343434" fill-opacity="1.000000" fill-rule="nonzero"/>
	<path id="Vector" d="M39.06 22.06L36.41 22.06L36.21 23.44C36.37 23.42 36.53 23.41 36.69 23.41C37.28 23.39 37.86 23.55 38.36 23.85C38.65 24.04 38.89 24.3 39.05 24.61C39.2 24.91 39.28 25.26 39.26 25.6C39.26 26.91 38.17 27.98 36.48 27.98C35.85 28 35.22 27.86 34.66 27.58L34.92 26.62C35.39 26.85 35.91 26.97 36.43 26.98C37.2 26.98 37.93 26.54 37.93 25.72C37.93 24.89 37.34 24.41 35.97 24.41C35.65 24.41 35.34 24.43 35.03 24.48L35.48 21L39.04 21L39.06 22.06Z" fill="#343434" fill-opacity="1.000000" fill-rule="nonzero"/>
</svg>
