<svg width="48.000000" height="48.000000" viewBox="0 0 48 48" fill="none" xmlns="http://www.w3.org/2000/svg" xmlns:xlink="http://www.w3.org/1999/xlink">
	<desc>
			Created with Pixso.
	</desc>
	<defs/>
	<path id="Vector" d="M3.03 3.76C2.06 3.76 1.21 4.6 1.21 5.57L1.21 16.48C1.21 17.45 2.06 18.3 3.03 18.3L44.97 18.3C45.94 18.3 46.78 17.45 46.78 16.48L46.78 5.57C46.78 4.6 45.94 3.76 44.97 3.76L3.03 3.76Z" fill="#FFDD00" fill-opacity="1.000000" fill-rule="nonzero"/>
	<path id="Vector" d="M5.33 15.39C4.24 15.27 3.39 14.42 3.51 13.33L3.51 12.72C3.51 12.24 3.88 11.88 4.36 11.88L43.15 11.88C43.63 11.88 44 12.24 44 12.72L44 13.21C44 14.3 43.27 15.27 42.18 15.27L5.33 15.27L5.33 15.39Z" fill="#FFFFFF" fill-opacity="1.000000" fill-rule="nonzero"/>
	<path id="Vector" d="M28.84 37.21C28.72 37.09 28.48 36.97 28.36 37.09L27.63 37.45L27.75 36.97C27.75 36.73 27.63 36.6 27.39 36.48C27.15 36.48 27.03 36.61 26.91 36.85L26.78 37.94L24.48 39.27L24.48 36.61L25.33 35.88C25.45 35.75 25.57 35.51 25.45 35.39C25.33 35.27 25.09 35.15 24.97 35.27L24.48 35.64L24.48 34.79C24.48 34.54 24.36 34.42 24.12 34.42C23.88 34.42 23.75 34.54 23.75 34.79L23.75 35.64L23.27 35.27C23.15 35.15 22.9 35.15 22.78 35.39C22.66 35.64 22.66 35.75 22.91 35.88L23.75 36.6L23.75 39.27L21.45 37.93L21.33 36.84C21.33 36.6 21.09 36.48 20.96 36.48C20.72 36.48 20.6 36.72 20.6 36.84L20.72 37.33L19.99 36.97C19.75 36.84 19.63 36.97 19.51 37.09C19.39 37.21 19.51 37.45 19.63 37.57L20.36 37.93L19.87 38.18C19.63 38.3 19.63 38.54 19.63 38.66C19.63 38.78 19.87 38.9 20 38.9L20.12 38.9L21.21 38.42L23.51 39.75L21.09 41.33L20 40.84C19.75 40.72 19.63 40.84 19.51 41.09C19.39 41.33 19.51 41.45 19.75 41.57L20.24 41.81L19.51 42.18C19.27 42.3 19.27 42.54 19.39 42.66C19.51 42.9 19.75 42.9 19.87 42.78L20.6 42.42L20.48 42.9C20.48 43.15 20.6 43.27 20.84 43.39C21.08 43.39 21.21 43.27 21.21 43.02L21.33 41.93L23.63 40.6L23.63 43.27L22.78 43.99C22.66 44.12 22.54 44.36 22.66 44.48C22.78 44.6 23.03 44.72 23.15 44.6L23.63 44.24L23.63 45.08C23.63 45.33 23.75 45.45 23.99 45.45C24.24 45.45 24.36 45.33 24.36 45.08L24.36 44.24L24.84 44.6C24.96 44.72 25.21 44.72 25.33 44.48C25.45 44.23 25.45 44.11 25.2 43.99L24.36 43.27L24.36 40.6L26.66 41.93L26.78 43.02C26.78 43.27 27.02 43.39 27.15 43.39C27.39 43.39 27.51 43.15 27.51 42.9L27.39 42.42L28.12 42.78C28.12 42.78 28.24 42.78 28.36 42.78C28.6 42.78 28.72 42.66 28.72 42.42C28.72 42.3 28.6 42.18 28.48 42.05L27.75 41.69L28.24 41.45C28.48 41.33 28.48 41.09 28.48 40.97C28.36 40.84 28.24 40.72 27.99 40.72L27.27 41.33L24.96 40L27.27 38.66L28.36 39.15L28.48 39.15C28.72 39.15 28.84 39.02 28.84 38.78C28.84 38.66 28.72 38.54 28.6 38.42L28.12 38.17L28.85 37.81C28.97 37.57 28.97 37.33 28.84 37.21Z" fill="#000000" fill-opacity="0.200000" fill-rule="nonzero"/>
	<path id="Vector" d="M3.03 19.39C1.33 19.39 0 18.06 0 16.36L0 5.45C0 3.88 1.33 2.54 3.03 2.54L44.97 2.54C46.66 2.54 48 3.88 48 5.57L48 16.48C48 18.18 46.66 19.51 44.97 19.51L3.03 19.51L3.03 19.39ZM3.03 4.24C2.3 4.24 1.69 4.84 1.69 5.57L1.69 16.48C1.69 17.21 2.3 17.82 3.03 17.82L44.97 17.82C45.69 17.82 46.3 17.21 46.3 16.48L46.3 5.57C46.3 4.84 45.69 4.24 44.97 4.24L3.03 4.24ZM11.03 32.6C11.15 32.73 11.39 32.73 11.51 32.73C11.87 32.73 12.12 32.6 12.24 32.36C12.48 32 14.42 29.09 13.21 26.78C12.84 25.45 12.84 24.12 13.21 22.91C13.33 22.42 13.09 21.94 12.6 21.7C12.12 21.45 11.63 21.82 11.39 22.3C11.39 22.42 10.3 25.45 11.39 27.64C12 28.73 10.91 30.79 10.54 31.39C10.54 31.76 10.66 32.36 11.03 32.6ZM18.54 32.6C18.91 32.84 19.51 32.73 19.87 32.36C20.12 32 22.06 29.09 20.85 26.78C20.48 25.45 20.48 24.12 20.85 22.91C20.97 22.42 20.72 21.94 20.24 21.7C19.76 21.45 19.27 21.82 19.03 22.3C19.03 22.42 17.94 25.45 19.03 27.64C19.63 28.73 18.54 30.79 18.18 31.39C17.94 31.76 18.06 32.36 18.54 32.6ZM26.78 32.6C26.91 32.73 27.15 32.73 27.27 32.73C27.63 32.73 27.87 32.6 28 32.36C28.24 32 30.18 29.09 28.97 26.78C28.6 25.45 28.6 24.12 28.97 22.91C29.09 22.42 28.84 21.94 28.36 21.7C27.88 21.45 27.39 21.82 27.15 22.3C27.15 22.42 26.06 25.45 27.15 27.64C27.75 28.73 26.66 30.79 26.3 31.39C26.3 31.76 26.42 32.36 26.78 32.6ZM34.18 32.6C34.54 32.84 35.15 32.73 35.51 32.36C35.75 32 37.69 29.09 36.48 26.78C36.12 25.45 36.12 24.12 36.48 22.91C36.6 22.42 36.36 21.94 35.88 21.7C35.39 21.45 34.91 21.82 34.66 22.3C34.66 22.42 33.57 25.45 34.66 27.64C35.27 28.73 34.18 30.79 33.82 31.39C33.69 31.76 33.81 32.36 34.18 32.6ZM4.72 7.39L4.72 8.48C4.72 9.09 5.33 9.57 5.94 9.57C6.54 9.57 7.03 9.09 7.03 8.48L7.03 7.39C7.03 6.78 6.42 6.3 5.81 6.3C5.21 6.3 4.72 6.78 4.72 7.39ZM8.12 7.39L8.12 8.48C8.12 9.09 8.72 9.57 9.33 9.57C9.93 9.57 10.42 9.09 10.42 8.48L10.42 7.39C10.42 6.78 9.81 6.3 9.21 6.3C8.72 6.3 8.24 6.78 8.12 7.39Z" fill="#000000" fill-opacity="1.000000" fill-rule="nonzero"/>
</svg>
