<svg width="48.000000" height="48.000000" viewBox="0 0 48 48" fill="none" xmlns="http://www.w3.org/2000/svg" xmlns:xlink="http://www.w3.org/1999/xlink">
	<desc>
			Created with Pixso.
	</desc>
	<defs/>
	<path id="Vector" d="M26.73 3.04C26.73 2.12 25.96 1.37 25.02 1.37L4.46 1.37C3.52 1.37 2.75 2.12 2.75 3.04L2.75 34.97L26.73 34.97L26.73 3.04Z" fill="#FFDD00" fill-opacity="1.000000" fill-rule="nonzero"/>
	<path id="Vector" d="M27.07 48L2.41 48C1.83 48 1.37 47.53 1.37 46.95L1.37 4.1C1.37 1.83 3.22 0 5.5 0L23.99 0C26.26 0 28.11 1.83 28.11 4.1L28.11 46.95C28.11 47.53 27.64 48 27.07 48ZM26.02 4.1C26.02 2.98 25.11 2.08 23.99 2.08L5.5 2.08C4.37 2.08 3.46 2.98 3.46 4.1L3.46 33.67L26.02 33.67L26.02 4.1ZM26.02 35.75L3.46 35.75L3.46 45.91L26.02 45.91L26.02 35.75ZM11.72 39.79C12.33 39.79 12.8 40.26 12.8 40.83C12.8 41.41 12.33 41.87 11.75 41.87L11.72 41.87C11.14 41.87 10.67 41.41 10.67 40.83C10.67 40.26 11.14 39.79 11.72 39.79ZM17.88 39.79C18.49 39.79 18.96 40.26 18.96 40.83C18.96 41.41 18.49 41.87 17.91 41.87L17.88 41.87C17.31 41.87 16.84 41.41 16.84 40.83C16.84 40.26 17.31 39.79 17.88 39.79ZM8.58 6.12C9.16 6.12 9.63 6.58 9.63 7.16L9.63 28.59C9.63 29.16 9.16 29.63 8.58 29.63C8 29.63 7.53 29.16 7.53 28.59L7.53 7.16C7.53 6.58 8 6.12 8.58 6.12ZM14.74 6.12C15.32 6.12 15.79 6.58 15.79 7.16L15.79 28.59C15.79 29.16 15.32 29.63 14.74 29.63C14.16 29.63 13.69 29.16 13.69 28.59L13.69 7.16C13.69 6.58 14.16 6.12 14.74 6.12ZM20.9 6.12C21.48 6.12 21.95 6.58 21.95 7.16L21.95 28.59C21.95 29.16 21.48 29.63 20.9 29.63C20.33 29.63 19.86 29.16 19.86 28.59L19.86 7.16C19.86 6.58 20.33 6.12 20.9 6.12Z" fill="#343434" fill-opacity="1.000000" fill-rule="nonzero"/>
	<path id="Vector" d="M42.37 20.26C40.97 20.24 39.62 19.64 38.67 18.62C38.08 17.96 37.21 17.58 36.31 17.58C35.54 17.58 34.8 17.86 34.22 18.36C34.13 18.45 34.04 18.54 33.95 18.63C33.78 18.79 33.52 18.89 33.25 18.89C32.96 18.89 32.7 18.78 32.5 18.58C32.1 18.17 32.1 17.54 32.5 17.13C33.5 16.08 34.86 15.49 36.31 15.49C37.66 15.49 38.93 16 39.91 16.91C39.99 16.98 40.06 17.05 40.13 17.13C40.71 17.79 41.57 18.18 42.48 18.18C43.24 18.18 43.98 17.9 44.55 17.4C44.65 17.31 44.75 17.22 44.84 17.11C45.02 16.93 45.29 16.81 45.58 16.81C45.85 16.81 46.11 16.92 46.31 17.11C46.72 17.5 46.73 18.16 46.33 18.58C45.25 19.64 43.85 20.24 42.37 20.26ZM42.37 14.14C40.97 14.12 39.62 13.52 38.67 12.5C38.08 11.84 37.21 11.45 36.31 11.45C35.54 11.45 34.8 11.73 34.22 12.24C34.13 12.33 34.04 12.41 33.95 12.51C33.78 12.67 33.52 12.77 33.25 12.77C32.96 12.77 32.7 12.66 32.5 12.46C32.1 12.05 32.1 11.41 32.5 11.01C33.5 9.95 34.86 9.37 36.31 9.37C37.66 9.37 38.93 9.88 39.91 10.79C39.99 10.86 40.06 10.93 40.13 11C40.71 11.67 41.57 12.05 42.48 12.05C43.24 12.05 43.98 11.78 44.55 11.28C44.65 11.19 44.75 11.1 44.84 10.99C45.02 10.8 45.29 10.69 45.58 10.69C45.85 10.69 46.11 10.8 46.31 10.98C46.72 11.38 46.73 12.04 46.33 12.46C45.25 13.52 43.85 14.11 42.37 14.14ZM36.31 23.15C37.66 23.15 38.93 23.65 39.91 24.57C39.99 24.64 40.06 24.71 40.13 24.78C40.71 25.44 41.57 25.83 42.48 25.83C43.24 25.83 43.98 25.55 44.55 25.05C44.66 24.96 44.75 24.87 44.84 24.77C45.02 24.58 45.29 24.47 45.58 24.47C45.85 24.47 46.11 24.57 46.31 24.76C46.51 24.95 46.62 25.21 46.62 25.49C46.63 25.77 46.52 26.03 46.33 26.23C45.25 27.3 43.85 27.89 42.37 27.92C40.97 27.89 39.62 27.3 38.67 26.28C38.08 25.61 37.21 25.23 36.31 25.23C35.54 25.23 34.8 25.51 34.22 26.02C34.12 26.1 34.04 26.19 33.95 26.28C33.78 26.45 33.52 26.55 33.25 26.55C32.96 26.55 32.7 26.44 32.5 26.23C32.1 25.83 32.1 25.19 32.5 24.78C33.5 23.73 34.86 23.15 36.31 23.15Z" fill="#000000" fill-opacity="0.200000" fill-rule="nonzero"/>
</svg>
