<svg width="48.002686" height="48.000000" viewBox="0 0 48.0027 48" fill="none" xmlns="http://www.w3.org/2000/svg" xmlns:xlink="http://www.w3.org/1999/xlink">
	<desc>
			Created with Pixso.
	</desc>
	<defs/>
	<path id="Vector" d="M18.69 32.38C18.69 31.32 18.27 30.31 17.52 29.56C16.77 28.81 15.76 28.39 14.7 28.39C13.64 28.39 12.63 28.81 11.88 29.56C11.13 30.31 10.71 31.32 10.71 32.38L5.1 32.38L5.1 11.01L33.2 11.01L33.2 32.38L18.69 32.38Z" fill="#FFDD00" fill-opacity="1.000000" fill-rule="nonzero"/>
	<path id="Vector" d="M44.26 32.38C44.26 31.32 43.84 30.31 43.09 29.56C42.35 28.81 41.33 28.39 40.28 28.39C39.22 28.39 38.2 28.81 37.46 29.56C36.71 30.31 36.29 31.32 36.29 32.38L33.23 32.38L33.23 15.86L41.72 15.93L44.91 23.02L46.19 23.02L47.19 32.36L44.26 32.38Z" fill="#000000" fill-opacity="0.200000" fill-rule="nonzero"/>
	<path id="Vector" d="M40.28 28.68C39.49 28.68 38.72 28.91 38.07 29.35C37.42 29.78 36.91 30.4 36.61 31.13C36.3 31.85 36.22 32.65 36.38 33.42C36.53 34.19 36.9 34.9 37.46 35.46C38.01 36.01 38.71 36.39 39.48 36.55C40.25 36.71 41.05 36.63 41.78 36.34C42.5 36.04 43.13 35.54 43.57 34.89C44.01 34.24 44.25 33.47 44.25 32.68C44.25 31.63 43.84 30.61 43.09 29.86C42.35 29.11 41.33 28.69 40.28 28.68ZM14.7 28.68C13.91 28.68 13.14 28.91 12.49 29.35C11.84 29.79 11.33 30.41 11.03 31.13C10.72 31.86 10.65 32.66 10.8 33.43C10.95 34.2 11.33 34.91 11.89 35.47C12.44 36.02 13.15 36.4 13.92 36.55C14.69 36.71 15.49 36.63 16.22 36.33C16.95 36.03 17.57 35.52 18 34.86C18.44 34.21 18.68 33.44 18.68 32.65C18.67 31.6 18.25 30.6 17.5 29.85C16.76 29.11 15.75 28.69 14.7 28.68Z" fill="#FFFFFF" fill-opacity="1.000000" fill-rule="nonzero"/>
	<path id="Vector" d="M2.96 21.94C2.76 21.94 2.57 21.86 2.43 21.72C2.29 21.58 2.21 21.39 2.21 21.2C2.21 21 2.29 20.81 2.43 20.67C2.57 20.53 2.76 20.45 2.96 20.45L6.64 20.45C6.84 20.45 7.03 20.53 7.17 20.67C7.31 20.81 7.39 21 7.39 21.2C7.39 21.39 7.31 21.58 7.17 21.72C7.03 21.86 6.84 21.94 6.64 21.94L2.96 21.94ZM6.64 25.73C6.84 25.73 7.03 25.65 7.17 25.51C7.31 25.37 7.39 25.18 7.39 24.98C7.39 24.78 7.31 24.59 7.17 24.45C7.03 24.31 6.84 24.24 6.64 24.24L0.74 24.24C0.55 24.24 0.36 24.31 0.22 24.45C0.08 24.59 0 24.78 0 24.98C0 25.18 0.08 25.37 0.22 25.51C0.36 25.65 0.55 25.73 0.74 25.73L6.64 25.73ZM45.65 33.68L45.69 33.43L47.26 33.43C47.37 33.43 47.47 33.41 47.56 33.37C47.66 33.33 47.74 33.27 47.81 33.19C47.88 33.11 47.93 33.02 47.96 32.93C47.99 32.83 48 32.73 47.99 32.63L47 22.87C46.98 22.69 46.9 22.52 46.76 22.4C46.63 22.28 46.45 22.21 46.27 22.21L45.41 22.21L42.61 15.75C42.56 15.62 42.46 15.5 42.34 15.42C42.22 15.34 42.08 15.3 41.94 15.3L34.09 15.3L34.09 10.56C34.08 10.37 34.01 10.18 33.87 10.04C33.73 9.9 33.54 9.82 33.34 9.82L4.86 9.82C4.67 9.82 4.48 9.9 4.34 10.04C4.2 10.18 4.12 10.37 4.12 10.56L4.12 16.68L0.74 16.68C0.55 16.68 0.36 16.76 0.22 16.9C0.08 17.04 0 17.23 0 17.43C0 17.63 0.08 17.82 0.22 17.96C0.36 18.1 0.55 18.18 0.74 18.18L4.86 18.18C5.06 18.18 5.25 18.1 5.38 17.96C5.52 17.82 5.6 17.64 5.6 17.44L5.6 11.29L32.63 11.29L32.63 31.93L20.47 31.93L20.43 31.93L20.12 31.93L20.08 31.69C19.85 30.43 19.18 29.28 18.19 28.46C17.2 27.64 15.96 27.19 14.67 27.2C13.39 27.21 12.14 27.67 11.16 28.5C10.18 29.33 9.53 30.48 9.31 31.75L9.25 32.12L8.9 31.97C8.82 31.94 8.72 31.93 8.63 31.93L5.6 31.93L5.6 28.5C5.6 28.3 5.52 28.12 5.39 27.98C5.25 27.84 5.07 27.76 4.87 27.76L4.84 27.76C4.66 27.77 4.48 27.85 4.35 27.98C4.22 28.12 4.15 28.3 4.15 28.49L4.15 32.68C4.15 32.87 4.22 33.06 4.35 33.2C4.49 33.34 4.67 33.42 4.86 33.42L8.63 33.42C8.72 33.42 8.81 33.41 8.9 33.37L9.24 33.24L9.3 33.6C9.51 34.87 10.17 36.03 11.15 36.86C12.13 37.7 13.38 38.16 14.66 38.17C15.95 38.17 17.2 37.72 18.19 36.9C19.18 36.08 19.85 34.93 20.08 33.66L20.12 33.41L20.37 33.41C20.42 33.41 20.45 33.41 20.43 33.41L34.84 33.41L34.89 33.66C35.12 34.92 35.78 36.06 36.76 36.88C37.75 37.7 38.99 38.15 40.27 38.15C41.55 38.15 42.79 37.7 43.77 36.88C44.75 36.06 45.42 34.92 45.65 33.66L45.65 33.68ZM44.27 32.68C44.26 33.47 44.02 34.24 43.58 34.89C43.14 35.54 42.52 36.04 41.79 36.34C41.06 36.63 40.27 36.71 39.5 36.55C38.73 36.39 38.02 36.01 37.47 35.46C36.92 34.9 36.54 34.19 36.39 33.42C36.24 32.65 36.32 31.85 36.62 31.13C36.92 30.4 37.43 29.78 38.09 29.35C38.74 28.91 39.51 28.68 40.29 28.68C41.35 28.69 42.36 29.11 43.11 29.86C43.85 30.61 44.27 31.63 44.27 32.68L44.27 32.68ZM18.7 32.68C18.7 33.47 18.46 34.24 18.02 34.89C17.59 35.55 16.97 36.06 16.24 36.36C15.51 36.66 14.71 36.74 13.94 36.58C13.17 36.43 12.46 36.05 11.91 35.5C11.35 34.94 10.97 34.23 10.82 33.46C10.67 32.69 10.74 31.89 11.05 31.16C11.35 30.44 11.86 29.82 12.51 29.38C13.16 28.94 13.93 28.71 14.72 28.71C15.77 28.72 16.78 29.14 17.52 29.88C18.27 30.62 18.69 31.63 18.7 32.68L18.7 32.68ZM34.89 31.69L34.84 31.93L34.1 31.93L34.1 16.77L41.46 16.77L44.27 23.23C44.32 23.36 44.42 23.47 44.54 23.55C44.66 23.63 44.8 23.67 44.94 23.67L45.61 23.67L46.46 31.93L45.7 31.93L45.65 31.69C45.43 30.43 44.76 29.29 43.78 28.47C42.8 27.65 41.56 27.2 40.28 27.2C38.99 27.2 37.75 27.65 36.77 28.47C35.79 29.29 35.12 30.43 34.9 31.69L34.89 31.69Z" fill="#343434" fill-opacity="1.000000" fill-rule="nonzero"/>
</svg>
