<svg width="48.000854" height="48.000000" viewBox="0 0 48.0009 48" fill="none" xmlns="http://www.w3.org/2000/svg" xmlns:xlink="http://www.w3.org/1999/xlink">
	<desc>
			Created with Pixso.
	</desc>
	<defs/>
	<path id="Vector" d="M3.04 21.17C2.59 21.47 1.99 21.39 1.69 21.02C1.4 20.56 1.47 19.96 1.85 19.66L23.47 2.97C23.85 2.75 24.3 2.75 24.67 2.97C49.89 22.6 21 0.19 46.15 19.59C46.6 19.89 46.67 20.49 46.3 20.94C46 21.32 45.33 21.47 44.95 21.09L42.26 18.99L42.18 18.91L24.45 5.31C24.15 5.08 23.77 5.08 23.55 5.31L5.81 18.99C5.74 18.99 5.74 19.06 5.74 19.06L3.04 21.17Z" fill="#000000" fill-opacity="0.200000" fill-rule="nonzero"/>
	<path id="Vector" d="M40.99 45.14L7.01 45.14L7.01 20.04L24.07 6.96L41.06 20.04L41.06 45.14L40.99 45.14ZM25.12 14.7C24.82 14.4 24.45 14.25 24 14.25C23.47 14.25 23.1 14.48 22.87 14.7C22.57 15 22.42 15.38 22.42 15.83C22.42 16.66 23.1 17.41 24 17.41C24.45 17.41 24.82 17.26 25.12 16.96C25.42 16.66 25.57 16.28 25.57 15.83C25.57 15.38 25.42 15 25.12 14.7Z" fill="#FFDD00" fill-opacity="1.000000" fill-rule="nonzero"/>
	<path id="Vector" d="M47.5 21.92C46.67 23.05 45.1 23.2 44.05 22.37L42.48 21.17L42.48 45.14L46.6 45.14C47.05 45.14 47.35 45.45 47.35 45.9C47.35 46.35 47.05 46.65 46.6 46.65L1.32 46.65C0.87 46.65 0.57 46.35 0.57 45.9C0.57 45.45 0.87 45.14 1.32 45.14L5.51 45.14L5.51 21.16L3.94 22.37C2.89 23.2 1.32 23.04 0.49 21.92C-0.33 20.86 -0.1 19.29 0.94 18.46L22.5 1.85C23.32 1.17 24.67 1.17 25.49 1.85L33.43 7.94L33.43 5.53C33.43 5.08 33.72 4.78 34.17 4.78L39.34 4.78C39.79 4.78 40.09 5.08 40.09 5.53L40.09 13.05L47.05 18.46C48.09 19.29 48.32 20.87 47.5 21.92ZM7.01 45.14L40.99 45.14L41.06 45.14L41.06 20.04L24.07 6.96L7.01 20.04L7.01 45.14ZM38.59 6.21L34.92 6.21L34.92 8.99C34.7 8.84 38.52 11.85 38.59 11.85L38.59 6.21ZM46.15 19.59C36.81 12.38 34.92 10.95 34.95 10.98C33.63 9.95 30.7 7.66 24.67 2.97C24.3 2.75 23.85 2.75 23.47 2.97L1.85 19.66C1.47 19.96 1.4 20.56 1.69 21.01C1.99 21.39 2.59 21.47 3.04 21.17L5.74 19.06C5.74 19.06 5.74 18.99 5.81 18.99L23.55 5.3C23.77 5.08 24.15 5.08 24.45 5.3L42.18 18.91L42.26 18.99L44.95 21.09C45.33 21.47 46 21.31 46.3 20.94C46.67 20.49 46.6 19.89 46.15 19.59ZM27.06 15.75C27.06 16.58 26.77 17.33 26.17 17.93C25.57 18.53 24.82 18.84 24 18.84C22.28 18.84 20.93 17.48 20.93 15.75C20.93 14.93 21.23 14.17 21.83 13.57C22.43 13.05 23.17 12.67 24 12.67C24.82 12.67 25.57 12.97 26.17 13.57C26.77 14.17 27.06 14.93 27.06 15.75ZM25.12 14.7C24.82 14.4 24.45 14.25 24 14.25C23.47 14.25 23.1 14.48 22.87 14.7C22.57 15 22.42 15.38 22.42 15.83C22.42 16.66 23.1 17.41 24 17.41C24.45 17.41 24.82 17.26 25.12 16.96C25.42 16.66 25.57 16.28 25.57 15.83C25.57 15.38 25.42 15 25.12 14.7ZM21.98 22.37C22.35 22.14 22.8 22.29 23.02 22.67C23.17 23.05 23.1 23.5 22.72 23.73C22.65 23.73 20.33 25.15 19.88 27.63C19.58 29.21 20.18 31.02 21.68 32.89C21.98 33.12 22.65 33.87 22.8 35.23C22.95 37.11 22.05 39.28 20.03 41.69C19.81 41.99 19.28 42.07 18.98 41.76C18.68 41.54 18.61 41.01 18.91 40.71C22.95 35.83 20.7 34.02 20.7 33.95C20.63 33.95 20.55 33.95 20.55 33.87C18.76 31.69 18.01 29.44 18.38 27.33C18.98 24.17 21.83 22.45 21.98 22.37ZM16.14 23.73C16.06 23.73 13.74 25.15 13.3 27.63C13 29.21 13.59 31.02 15.09 32.89C15.39 33.12 16.06 33.87 16.21 35.23C16.37 37.11 15.47 39.28 13.45 41.69C13.22 41.99 12.7 42.07 12.4 41.76C12.1 41.54 12.02 41.01 12.32 40.71C16.37 35.83 14.12 34.02 14.12 33.95C14.04 33.95 13.97 33.95 13.97 33.87C12.17 31.69 11.42 29.44 11.8 27.33C12.4 24.17 15.24 22.45 15.39 22.37C15.76 22.14 16.21 22.29 16.44 22.67C16.59 23.05 16.51 23.5 16.14 23.73ZM27.14 33.8C25.34 31.62 24.59 29.36 24.97 27.26C25.57 24.1 28.41 22.45 28.49 22.3C28.86 22.15 29.31 22.22 29.53 22.6C29.68 22.98 29.61 23.42 29.23 23.65C29.23 23.65 26.84 25.08 26.39 27.56C26.09 29.14 26.69 30.94 28.19 32.82C28.49 33.04 29.16 33.8 29.31 35.15C29.46 37.03 28.56 39.21 26.54 41.61C26.32 41.91 25.79 41.99 25.49 41.69C25.19 41.47 25.12 40.94 25.42 40.64C29.39 35.83 27.29 33.95 27.21 33.87L27.14 33.8ZM33.73 33.87C31.93 31.62 31.18 29.44 31.48 27.33C32.08 24.17 34.92 22.45 35.07 22.37C35.45 22.22 35.9 22.29 36.12 22.67C36.27 23.05 36.19 23.5 35.82 23.72C35.82 23.72 33.43 25.15 32.98 27.63C32.68 29.21 33.27 31.01 34.77 32.89C35.07 33.12 35.74 33.87 35.9 35.22C36.05 37.1 35.15 39.28 33.13 41.69C32.9 41.99 32.38 42.06 32.08 41.76C31.78 41.54 31.7 41.01 32 40.71C35.97 35.9 33.88 34.02 33.8 33.95L33.73 33.87Z" fill="#343434" fill-opacity="1.000000" fill-rule="nonzero"/>
</svg>
