<svg width="48.000000" height="48.000000" viewBox="0 0 48 48" fill="none" xmlns="http://www.w3.org/2000/svg" xmlns:xlink="http://www.w3.org/1999/xlink">
	<desc>
			Created with Pixso.
	</desc>
	<defs/>
	<path id="Vector" d="M23.79 40.69C32.83 40.69 40.15 33.37 40.15 24.34C40.15 15.31 32.83 7.98 23.79 7.98C14.76 7.98 7.44 15.31 7.44 24.34C7.44 33.37 14.76 40.69 23.79 40.69Z" fill="#000000" fill-opacity="0.200000" fill-rule="nonzero"/>
	<path id="Vector" d="M18.64 19.91L8.73 19.91L8.73 33.82L18.64 33.82L18.64 19.91Z" fill="#F2F2F2" fill-opacity="1.000000" fill-rule="nonzero"/>
	<path id="Vector" d="M21.44 30.62L23.18 33.02C23.31 33.22 23.48 33.39 23.69 33.51C23.9 33.63 24.13 33.69 24.37 33.7L34.28 33.7C34.48 33.7 34.67 33.65 34.85 33.55C34.78 33.41 34.68 33.29 34.55 33.21C34.41 33.12 34.26 33.07 34.1 33.07L31.72 33.07L31.72 31.25L35.93 31.25C36.04 31.25 36.15 31.23 36.25 31.19C36.35 31.15 36.44 31.09 36.52 31.01C36.59 30.93 36.66 30.84 36.7 30.74C36.74 30.64 36.76 30.53 36.76 30.42C36.76 30.31 36.74 30.2 36.7 30.1C36.66 30 36.59 29.91 36.52 29.83C36.44 29.75 36.35 29.69 36.25 29.65C36.15 29.61 36.04 29.59 35.93 29.59L31.72 29.59L31.72 27.77L37.76 27.77C37.87 27.77 37.98 27.76 38.09 27.72C38.19 27.68 38.29 27.62 38.37 27.54C38.45 27.46 38.52 27.37 38.56 27.26C38.61 27.16 38.63 27.05 38.63 26.94C38.63 26.82 38.61 26.71 38.56 26.61C38.52 26.5 38.45 26.41 38.37 26.33C38.29 26.26 38.19 26.2 38.09 26.16C37.98 26.12 37.87 26.1 37.76 26.1L31.72 26.1L31.72 24.28L37.07 24.28C37.28 24.27 37.49 24.18 37.63 24.03C37.78 23.87 37.86 23.66 37.86 23.45C37.86 23.24 37.78 23.03 37.63 22.88C37.49 22.72 37.28 22.63 37.07 22.62L24.9 22.62L25.39 21.37C26.07 19.77 26.53 18.09 26.77 16.38C26.77 16.22 26.77 16.03 26.78 15.81C26.84 15.19 26.81 14.56 26.7 13.95C26.57 13.94 26.45 13.94 26.32 13.95C25.78 15.74 25.04 17.46 24.13 19.09C23.63 19.78 21.71 22.27 21.71 22.27L21.43 22.62L20.39 22.62L20.39 30.05L20.45 30.05C20.65 30.06 20.84 30.12 21.01 30.22C21.19 30.31 21.33 30.45 21.44 30.62Z" fill="#FFDD00" fill-opacity="1.000000" fill-rule="nonzero"/>
	<path id="Vector" d="M19.4 13.46L22.78 13.46L22.78 15.28L19.4 15.28L19.4 13.46ZM27.44 10.77L29.02 11.68L30.71 8.75L29.14 7.84L27.44 10.77ZM29.11 16.97L32.04 18.66L32.95 17.09L30.02 15.39L29.11 16.97ZM29.11 11.76L30.02 13.34L32.95 11.65L32.04 10.07L29.11 11.76ZM12.28 20.73L14.45 20.73L14.45 18.91L12.28 18.91L12.28 20.73ZM12.5 5.68L11.56 4.12C9.86 5.15 8.29 6.4 6.9 7.82L8.2 9.09C9.49 7.78 10.93 6.63 12.5 5.68ZM23.8 0.71C20.44 0.7 17.13 1.41 14.07 2.8L14.82 4.45C19.66 2.27 25.13 1.93 30.2 3.48C35.27 5.04 39.6 8.39 42.38 12.91C45.16 17.43 46.2 22.8 45.3 28.03C44.4 33.26 41.63 37.99 37.5 41.32C33.37 44.65 28.17 46.36 22.86 46.13C17.56 45.9 12.53 43.75 8.7 40.08C4.87 36.41 2.51 31.46 2.06 26.18C1.62 20.89 3.11 15.62 6.27 11.36L4.81 10.27C1.64 14.54 0.01 19.76 0.17 25.07C0.34 30.39 2.29 35.49 5.72 39.56C9.14 43.63 13.84 46.42 19.05 47.49C24.25 48.56 29.67 47.84 34.42 45.45C39.17 43.05 42.97 39.13 45.22 34.31C47.46 29.49 48.01 24.05 46.78 18.88C45.56 13.71 42.62 9.1 38.45 5.8C34.27 2.5 29.11 0.71 23.8 0.71ZM18.57 33.73L18.57 20.74L15.9 20.74L15.9 18.91L20.39 18.91L20.39 20.8L20.53 20.8C21.08 20.09 22.28 18.53 22.66 18.01C22.79 17.81 22.91 17.6 23.01 17.38L20.8 18.66L19.89 17.09L22.82 15.4L23.44 16.46C23.91 15.34 24.42 13.92 24.72 12.96L24.83 12.75C25.03 12.51 25.28 12.33 25.56 12.22C25.85 12.11 26.16 12.07 26.46 12.11L26.49 12.11C26.8 12.07 27.11 12.11 27.4 12.22C27.69 12.34 27.94 12.52 28.14 12.76C28.58 13.74 28.74 14.81 28.6 15.87C28.6 16.06 28.59 16.23 28.59 16.37C28.45 17.89 28.1 19.37 27.55 20.79L37.07 20.79C37.78 20.79 38.45 21.07 38.95 21.57C39.44 22.07 39.72 22.74 39.72 23.44C39.72 23.93 39.59 24.4 39.33 24.81C39.74 25.1 40.05 25.51 40.23 25.98C40.41 26.44 40.46 26.95 40.36 27.44C40.26 27.94 40.03 28.39 39.68 28.75C39.33 29.12 38.89 29.37 38.41 29.49C38.52 29.79 38.58 30.1 38.58 30.42C38.58 31.01 38.38 31.58 38.02 32.04C37.65 32.5 37.15 32.83 36.58 32.98C36.69 33.27 36.75 33.58 36.75 33.9C36.75 34.6 36.47 35.28 35.97 35.77C35.48 36.27 34.8 36.55 34.1 36.55L24.19 36.55C23.84 36.55 23.5 36.48 23.19 36.35C22.87 36.22 22.59 36.02 22.35 35.78L20.61 34C20.55 33.94 20.47 33.9 20.38 33.88L20.38 35.56L9.79 35.56C9.05 35.56 8.34 35.27 7.82 34.75C7.3 34.22 7 33.52 7 32.78L7 21.69C7 20.95 7.3 20.25 7.82 19.72C8.34 19.2 9.05 18.91 9.79 18.91L11.69 18.91L11.69 20.73L9.79 20.73C9.53 20.73 9.29 20.83 9.11 21.01C8.92 21.19 8.82 21.44 8.82 21.69L8.82 32.77C8.82 33.03 8.92 33.27 9.11 33.45C9.29 33.63 9.53 33.74 9.79 33.74L18.57 33.73ZM34.93 33.91C34.93 33.78 34.9 33.66 34.85 33.55C34.78 33.41 34.68 33.29 34.55 33.21C34.41 33.12 34.26 33.07 34.1 33.07L31.72 33.07L31.72 31.25L35.93 31.25C36.15 31.25 36.36 31.17 36.52 31.01C36.67 30.85 36.76 30.64 36.76 30.42C36.76 30.2 36.67 29.99 36.52 29.83C36.36 29.68 36.15 29.59 35.93 29.59L31.72 29.59L31.72 27.77L37.76 27.77C37.87 27.77 37.98 27.76 38.09 27.72C38.19 27.68 38.29 27.62 38.37 27.54C38.45 27.46 38.52 27.37 38.56 27.26C38.61 27.16 38.63 27.05 38.63 26.94C38.63 26.82 38.61 26.71 38.56 26.61C38.52 26.5 38.45 26.41 38.37 26.33C38.29 26.26 38.19 26.2 38.09 26.16C37.98 26.12 37.87 26.1 37.76 26.1L31.72 26.1L31.72 24.28L37.07 24.28C37.28 24.27 37.49 24.18 37.63 24.03C37.78 23.87 37.86 23.66 37.86 23.45C37.86 23.24 37.78 23.03 37.63 22.88C37.49 22.72 37.28 22.63 37.07 22.62L24.9 22.62L25.39 21.37C26.07 19.77 26.53 18.09 26.77 16.38C26.77 16.22 26.77 16.03 26.78 15.81C26.84 15.19 26.81 14.56 26.7 13.95C26.57 13.94 26.45 13.94 26.32 13.95C25.78 15.74 25.04 17.46 24.13 19.09C23.63 19.78 21.71 22.27 21.71 22.27L21.43 22.63L20.39 22.63L20.39 32.06C20.96 32.09 21.51 32.34 21.92 32.74L23.65 34.52C23.72 34.59 23.81 34.65 23.9 34.68C23.99 34.72 24.09 34.74 24.19 34.74L34.1 34.74C34.21 34.74 34.32 34.72 34.42 34.68C34.52 34.64 34.61 34.57 34.69 34.5C34.77 34.42 34.83 34.33 34.87 34.23C34.91 34.12 34.93 34.02 34.93 33.91ZM19.88 11.65L22.81 13.34L23.72 11.77L20.79 10.08L19.88 11.65ZM27.33 7.35L25.51 7.35L25.51 10.73L27.33 10.73L27.33 7.35ZM33.43 13.46L30.05 13.46L30.05 15.28L33.43 15.28L33.43 13.46ZM25.38 10.77L23.69 7.84L22.12 8.75L23.81 11.68L25.38 10.77Z" fill="#343434" fill-opacity="1.000000" fill-rule="nonzero"/>
</svg>
