<svg width="48.000000" height="48.000000" viewBox="0 0 48 48" fill="none" xmlns="http://www.w3.org/2000/svg" xmlns:xlink="http://www.w3.org/1999/xlink">
	<desc>
			Created with Pixso.
	</desc>
	<defs/>
	<path id="Vector" d="M34.56 42.26C34.56 42.26 32.7 44.12 30.89 43.79C29.07 43.45 28 41.05 28 41.05C28.35 40.72 28.73 40.43 29.14 40.17C28.51 40.38 27.86 40.48 27.2 40.49C27.2 40.49 25.93 38.35 26.68 37.05C27.43 35.75 29.92 35.79 29.92 35.79C29.92 35.79 31.19 37.94 30.44 39.23C30.3 39.46 30.1 39.65 29.88 39.8C30.43 39.53 31.06 39.43 31.67 39.52C33.49 39.85 34.56 42.26 34.56 42.26ZM35.68 31.19C35.68 31.19 33.5 32.4 33.5 33.9C33.5 35.4 35.67 36.61 35.67 36.61C35.67 36.61 37.83 35.41 37.84 33.91C37.85 32.41 35.68 31.19 35.68 31.19ZM39.38 33.46C37.65 34.08 36.96 36.58 36.96 36.58C36.96 36.58 39.05 38.12 40.84 37.51C42.63 36.9 43.25 34.39 43.25 34.39C43.25 34.39 41.12 32.84 39.42 33.46L39.38 33.46ZM38.38 24.68C38.38 24.68 37.11 26.76 37.85 28.12C38.59 29.47 41.09 29.38 41.09 29.38C41.09 29.38 42.36 27.3 41.62 25.96C40.88 24.61 38.38 24.68 38.38 24.68ZM46.89 23.27C46.89 23.27 44.26 23 43.07 24.39C41.87 25.79 42.56 28.34 42.56 28.34C42.56 28.34 45.18 28.61 46.37 27.21C47.56 25.82 46.86 23.24 46.86 23.24L46.89 23.27ZM40.72 16.88C39.43 16.13 37.3 17.4 37.3 17.4C37.3 17.4 37.3 19.89 38.55 20.64C39.8 21.39 41.98 20.12 41.98 20.12C41.98 20.12 41.99 17.61 40.69 16.85L40.72 16.88ZM45.93 15.48C46.26 13.67 44.4 11.8 44.4 11.8C44.4 11.8 41.99 12.85 41.66 14.69C41.33 16.53 43.18 18.36 43.18 18.36C43.18 18.36 45.59 17.26 45.93 15.45L45.93 15.48ZM40.15 12.5C40.15 12.5 41.69 10.42 41.08 8.63C40.47 6.84 37.96 6.21 37.96 6.21C37.96 6.21 36.4 8.29 37.02 10.07C37.63 11.85 40.15 12.5 40.15 12.5ZM18.52 35.79C18.52 35.79 17.25 37.94 18 39.23C18.15 39.46 18.35 39.66 18.58 39.81C18.01 39.53 17.37 39.43 16.75 39.52C14.94 39.85 13.87 42.26 13.87 42.26C13.87 42.26 15.72 44.12 17.53 43.79C19.34 43.45 20.43 41.05 20.43 41.05C20.06 40.71 19.67 40.41 19.25 40.15C19.89 40.37 20.56 40.48 21.24 40.49C21.24 40.49 22.51 38.35 21.76 37.05C21.01 35.75 18.52 35.79 18.52 35.79ZM12.77 31.19C12.77 31.19 10.6 32.41 10.6 33.91C10.61 35.41 12.77 36.61 12.77 36.61C12.77 36.61 14.95 35.4 14.94 33.9C14.93 32.4 12.77 31.19 12.77 31.19ZM9.03 33.46C7.3 32.85 5.17 34.39 5.17 34.39C5.17 34.39 5.85 36.94 7.59 37.51C9.33 38.08 11.45 36.58 11.45 36.58C11.45 36.58 10.77 34.05 9.03 33.46L9.03 33.46ZM6.84 25.92C6.09 27.22 7.37 29.35 7.37 29.35C7.37 29.35 9.86 29.35 10.6 28.09C11.33 26.83 10.06 24.65 10.06 24.65C10.06 24.65 7.58 24.62 6.84 25.92L6.84 25.92ZM5.9 28.31C5.9 28.31 6.58 25.77 5.38 24.36C4.18 22.95 1.57 23.24 1.57 23.24C1.57 23.24 0.88 25.78 2.08 27.18C3.28 28.59 5.9 28.3 5.9 28.3L5.9 28.31ZM9.9 20.61C11.2 19.86 11.16 17.38 11.16 17.38C11.16 17.38 9.07 16.1 7.72 16.86C6.37 17.61 6.47 20.09 6.47 20.09C6.47 20.09 8.61 21.36 9.9 20.61L9.9 20.61ZM5.23 18.33C5.23 18.33 7.1 16.47 6.76 14.66C6.43 12.85 4.03 11.77 4.03 11.77C4.03 11.77 2.16 13.64 2.5 15.45C2.83 17.26 5.23 18.33 5.23 18.33ZM12.16 8.81C12.77 7.07 11.23 4.93 11.23 4.93C11.23 4.93 8.68 5.62 8.11 7.36C7.53 9.1 9.04 11.22 9.04 11.22C9.04 11.22 11.54 10.55 12.16 8.81Z" fill="#000000" fill-opacity="0.200000" fill-rule="nonzero"/>
	<path id="Vector" d="M34.22 18.77C34.22 17.67 33.89 16.59 33.28 15.67C32.66 14.76 31.79 14.05 30.77 13.63C29.74 13.21 28.62 13.11 27.54 13.33C26.46 13.56 25.47 14.1 24.7 14.89C23.66 13.93 22.29 13.41 20.87 13.43C19.46 13.45 18.1 14.01 17.09 14.99C16.07 15.98 15.47 17.31 15.41 18.73C15.34 20.14 15.82 21.53 16.75 22.6L24.68 30.5L32.82 22.43L33.14 22.04C33.84 21.09 34.22 19.95 34.22 18.77Z" fill="#FFDD00" fill-opacity="1.000000" fill-rule="nonzero"/>
	<path id="Vector" d="M42.31 29.08L42.44 29.08C42.44 29.08 42.7 29.08 43.04 29.08C43.75 29.12 44.46 29.02 45.14 28.77C45.81 28.53 46.42 28.15 46.94 27.66C48.38 25.96 47.64 23.12 47.61 23L47.47 22.49L46.93 22.42C45.78 22.33 44.63 22.51 43.58 22.97C43.58 22.66 43.63 22.36 43.63 22.06C43.62 21.06 43.53 20.06 43.37 19.07L43.5 19.01C43.62 19.01 46.29 17.75 46.69 15.55C47.1 13.36 45.03 11.27 44.95 11.19L44.57 10.81L44.08 11.02C43.05 11.54 42.17 12.3 41.51 13.23L41.13 12.54C41.54 11.94 41.81 11.25 41.94 10.54C42.06 9.82 42.04 9.09 41.87 8.38C41.12 6.3 38.3 5.49 38.17 5.46L37.65 5.33L37.34 5.76C37.27 5.86 35.56 8.25 36.3 10.34C36.91 12.08 38.94 12.92 39.7 13.17C40.09 13.81 40.44 14.47 40.75 15.16C40.85 15.41 40.93 15.68 41.03 15.94C41.03 16.01 41.03 16.08 41.08 16.16C39.43 15.3 37.21 16.56 36.91 16.71L36.54 16.94L36.54 17.39C36.54 17.7 36.54 20.36 38.18 21.32C38.6 21.56 39.08 21.67 39.56 21.66C40.43 21.62 41.29 21.39 42.06 20.98C42.06 21.36 42.12 21.73 42.12 22.12C42.11 23.08 42.03 24.04 41.86 24.99C40.85 24.27 39.63 23.9 38.39 23.95L37.97 23.95L37.74 24.31C37.58 24.57 36.25 26.9 37.2 28.54C37.55 29.01 38 29.4 38.53 29.68C39.05 29.95 39.62 30.11 40.21 30.13C39.7 31.12 39.08 32.05 38.38 32.91C37.86 31.9 37.05 31.07 36.05 30.51L35.68 30.29L35.29 30.51C35.03 30.66 32.72 32 32.72 33.89C32.78 34.46 32.96 35.01 33.26 35.5C33.55 35.98 33.95 36.4 34.43 36.72C33.49 37.37 32.49 37.93 31.44 38.39C31.42 37.34 31.13 36.3 30.58 35.39L30.37 35.02L29.93 35.02C29.65 35.02 26.95 35.02 26 36.68C25.78 37.17 25.67 37.7 25.67 38.24C25.67 38.78 25.78 39.31 26 39.8C24.8 39.92 23.58 39.92 22.37 39.8C22.59 39.31 22.71 38.78 22.71 38.24C22.71 37.7 22.59 37.17 22.37 36.68C21.42 35.03 18.73 35.02 18.45 35.02L18.01 35.02L17.79 35.39C17.25 36.3 16.96 37.34 16.94 38.39C15.89 37.93 14.89 37.37 13.95 36.72C14.42 36.4 14.82 35.98 15.12 35.5C15.41 35.01 15.6 34.46 15.66 33.89C15.66 32 13.34 30.66 13.08 30.51L12.7 30.29L12.32 30.51C11.33 31.07 10.52 31.9 9.99 32.91C9.3 32.02 8.71 31.07 8.21 30.06C8.82 30.06 9.41 29.91 9.95 29.63C10.49 29.36 10.95 28.96 11.31 28.47C12.26 26.83 10.93 24.51 10.78 24.25L10.55 23.88L10.12 23.88C8.88 23.83 7.66 24.2 6.66 24.92C6.51 23.98 6.43 23.02 6.42 22.06C6.42 21.67 6.42 21.31 6.42 20.93C7.19 21.33 8.04 21.56 8.91 21.6C9.38 21.62 9.85 21.51 10.27 21.29C11.92 20.33 11.92 17.66 11.92 17.36L11.92 16.93L11.54 16.7C11.29 16.55 9.05 15.29 7.38 16.15L7.38 16.01C7.48 15.72 7.57 15.43 7.69 15.15C8.19 13.99 8.8 12.88 9.52 11.85C10.25 11.65 10.93 11.3 11.51 10.82C12.09 10.34 12.56 9.74 12.9 9.06C13.64 6.98 11.93 4.58 11.86 4.47L11.54 4.05L11.02 4.18C10.91 4.18 8.08 4.99 7.34 7.1C7.17 7.81 7.15 8.55 7.28 9.26C7.42 9.98 7.7 10.66 8.12 11.26C7.7 11.9 7.32 12.55 6.98 13.23C6.3 12.3 5.39 11.56 4.34 11.08L3.85 10.86L3.48 11.24C3.38 11.33 1.32 13.42 1.73 15.6C2.13 17.79 4.85 19.01 4.92 19.06L5.07 19.13C4.91 20.12 4.82 21.11 4.82 22.11C4.82 22.42 4.82 22.73 4.82 23.03C3.76 22.57 2.6 22.38 1.45 22.48L0.91 22.54L0.77 23.05C0.77 23.17 0 26.02 1.45 27.7C1.96 28.19 2.57 28.57 3.24 28.82C3.91 29.06 4.63 29.17 5.34 29.13C5.68 29.13 5.9 29.13 5.93 29.13L6.09 29.13C6.16 29.32 6.21 29.51 6.3 29.7C6.73 30.72 7.25 31.7 7.86 32.63C6.71 32.75 5.62 33.16 4.67 33.82L4.23 34.14L4.37 34.66C4.37 34.77 5.18 37.6 7.28 38.35C7.65 38.48 8.03 38.54 8.42 38.54C9.66 38.46 10.85 38.04 11.87 37.32L11.98 37.24C13 38.04 14.09 38.74 15.25 39.32C14.33 40.01 13.6 40.91 13.1 41.94L12.89 42.43L13.27 42.82C14.29 43.83 15.62 44.47 17.05 44.62C17.24 44.63 17.44 44.63 17.63 44.62C19.82 44.21 21.04 41.5 21.09 41.43L21.09 41.33L21.29 41.33C23.16 41.63 25.08 41.63 26.96 41.33L27.15 41.33L27.15 41.43C27.15 41.55 28.42 44.21 30.61 44.62C30.8 44.63 31 44.63 31.19 44.62C32.62 44.47 33.96 43.84 34.98 42.82L35.35 42.43L35.13 41.94C34.65 40.91 33.91 40 33 39.32C34.16 38.74 35.25 38.05 36.27 37.24L36.37 37.31C37.39 38.03 38.58 38.45 39.83 38.53C40.21 38.53 40.6 38.47 40.96 38.34C43.04 37.59 43.83 34.76 43.87 34.65L44.01 34.13L43.57 33.81C42.63 33.16 41.54 32.74 40.4 32.62C41.01 31.69 41.53 30.71 41.96 29.69C42.18 29.45 42.23 29.26 42.31 29.08ZM8.8 7.62C9.25 6.79 9.99 6.17 10.89 5.88C11.41 6.66 11.6 7.62 11.42 8.55C10.98 9.37 10.23 10 9.34 10.28C8.82 9.5 8.63 8.54 8.8 7.62ZM18.99 36.59C19.72 36.67 20.77 36.89 21.07 37.45C21.17 37.81 21.2 38.18 21.15 38.55C21.1 38.92 20.98 39.28 20.8 39.6C20.2 39.49 19.62 39.34 19.04 39.16L18.92 39.1C18.82 39.03 18.73 38.94 18.66 38.84C18.57 38.46 18.55 38.07 18.6 37.69C18.66 37.3 18.79 36.93 18.99 36.59ZM12.74 32.12C13.34 32.54 14.12 33.26 14.12 33.9C14.12 34.53 13.34 35.26 12.74 35.69C12.13 35.26 11.36 34.54 11.35 33.91C11.34 33.27 12.17 32.54 12.77 32.11L12.74 32.12ZM7.48 26.31C7.79 25.77 8.83 25.53 9.56 25.45C9.88 26.12 10.2 27.14 9.88 27.69C9.56 28.25 8.52 28.48 7.79 28.55C7.51 27.88 7.15 26.86 7.51 26.31L7.48 26.31ZM8.09 17.53C8.46 17.43 8.85 17.41 9.24 17.46C9.62 17.52 9.99 17.65 10.33 17.84C10.26 18.57 10.02 19.62 9.48 19.93C8.94 20.23 7.91 19.93 7.23 19.62C7.33 18.89 7.57 17.85 8.12 17.53L8.09 17.53ZM5.07 17.39C4.64 17.18 4.27 16.89 3.96 16.54C3.65 16.18 3.42 15.76 3.28 15.31C3.25 14.37 3.58 13.46 4.21 12.76C4.64 12.97 5.01 13.27 5.32 13.62C5.63 13.98 5.86 14.4 6 14.84C6.05 15.08 6.05 15.33 6 15.56C5.9 15.85 5.79 16.15 5.69 16.44C5.52 16.78 5.31 17.1 5.07 17.39ZM5.25 27.61C4.32 27.65 3.39 27.34 2.68 26.72C2.19 25.92 2.02 24.96 2.22 24.05C3.16 23.99 4.09 24.31 4.8 24.92C4.94 25.1 5.06 25.3 5.13 25.51C5.13 25.8 5.23 26.08 5.3 26.35C5.32 26.75 5.3 27.16 5.24 27.56L5.25 27.61ZM7.86 36.87C7.03 36.43 6.41 35.68 6.12 34.79C6.9 34.27 7.86 34.08 8.78 34.26C8.98 34.34 9.16 34.45 9.32 34.58C9.51 34.8 9.72 35.01 9.92 35.23C10.16 35.58 10.37 35.96 10.52 36.35C9.72 36.84 8.77 37.01 7.85 36.82L7.86 36.87ZM19.44 41.28C19.23 41.7 18.94 42.07 18.59 42.38C18.23 42.69 17.81 42.92 17.36 43.07C16.42 43.09 15.51 42.76 14.81 42.13C15.24 41.28 15.99 40.64 16.89 40.34C17.11 40.3 17.33 40.3 17.55 40.34L18.3 40.61C18.5 40.72 18.7 40.82 18.92 40.9C19.09 41 19.27 41.11 19.43 41.22L19.44 41.28ZM43.59 24.87C44.3 24.25 45.22 23.94 46.16 24C46.37 24.91 46.2 25.88 45.7 26.67C44.99 27.29 44.07 27.6 43.13 27.56C43.1 27.16 43.1 26.76 43.13 26.37C43.2 26.06 43.26 25.74 43.32 25.43C43.38 25.23 43.47 25.04 43.59 24.87ZM42.38 14.8C42.68 13.9 43.32 13.15 44.17 12.72C44.8 13.42 45.14 14.33 45.12 15.27C44.81 16.17 44.17 16.92 43.33 17.35C43.1 17.07 42.91 16.77 42.74 16.46C42.64 16.11 42.52 15.78 42.39 15.42C42.37 15.21 42.38 15 42.42 14.8L42.38 14.8ZM37.69 9.82C37.51 8.89 37.7 7.94 38.22 7.15C39.11 7.45 39.85 8.07 40.3 8.89C40.47 9.82 40.28 10.78 39.77 11.57C38.89 11.26 38.16 10.64 37.73 9.82L37.69 9.82ZM38.87 19.94C38.32 19.62 38.09 18.57 38.02 17.86C38.35 17.66 38.73 17.53 39.11 17.47C39.5 17.42 39.89 17.44 40.27 17.54C40.81 17.87 41.05 18.91 41.11 19.62C40.46 19.93 39.42 20.26 38.91 19.93L38.87 19.94ZM38.46 27.69C38.14 27.15 38.46 26.13 38.78 25.45C39.51 25.53 40.56 25.77 40.86 26.31C40.96 26.68 40.98 27.08 40.93 27.46C40.88 27.84 40.75 28.21 40.55 28.55C39.86 28.48 38.82 28.24 38.5 27.69L38.46 27.69ZM35.63 32.12C36.23 32.55 37.02 33.27 37.02 33.91C37.02 34.54 36.23 35.26 35.63 35.69C35.02 35.26 34.24 34.53 34.24 33.9C34.24 33.26 35.06 32.54 35.67 32.11L35.63 32.12ZM27.3 37.45C27.61 36.9 28.66 36.67 29.38 36.59C29.69 37.27 30.01 38.29 29.69 38.84C29.63 38.94 29.55 39.03 29.45 39.09L29.3 39.18C28.72 39.34 28.14 39.49 27.56 39.6C27.38 39.28 27.27 38.92 27.24 38.54C27.21 38.17 27.25 37.8 27.36 37.45L27.3 37.45ZM30.97 43.02C30.07 42.72 29.33 42.08 28.89 41.24C29.04 41.12 29.2 41 29.39 40.87C29.62 40.79 29.84 40.69 30.05 40.57C30.31 40.49 30.56 40.39 30.81 40.29C31.02 40.25 31.23 40.25 31.44 40.29C32.34 40.59 33.09 41.23 33.52 42.08C32.84 42.7 31.95 43.03 31.03 43.02L30.97 43.02ZM39.58 34.2C40.51 34.03 41.47 34.22 42.26 34.73C41.96 35.62 41.34 36.36 40.52 36.81C39.59 36.99 38.63 36.8 37.84 36.28C38 35.92 38.18 35.57 38.4 35.24C38.63 34.99 38.87 34.75 39.08 34.49C39.25 34.36 39.44 34.26 39.64 34.2L39.58 34.2Z" fill="#343434" fill-opacity="1.000000" fill-rule="nonzero"/>
</svg>
