<svg width="48.000000" height="48.000000" viewBox="0 0 48 48" fill="none" xmlns="http://www.w3.org/2000/svg" xmlns:xlink="http://www.w3.org/1999/xlink">
	<desc>
			Created with Pixso.
	</desc>
	<defs/>
	<path id="Vector" d="M18.63 32.6C18.63 31.56 18.22 30.56 17.48 29.82C16.74 29.08 15.74 28.67 14.7 28.67C13.66 28.67 12.66 29.08 11.93 29.82C11.19 30.56 10.78 31.56 10.78 32.6L5.25 32.6L5.25 11.55L32.92 11.55L32.92 32.6L18.63 32.6Z" fill="#FFDD00" fill-opacity="1.000000" fill-rule="nonzero"/>
	<path id="Vector" d="M43.81 32.6C43.81 31.56 43.4 30.56 42.66 29.82C41.92 29.08 40.93 28.67 39.88 28.67C38.84 28.67 37.84 29.08 37.11 29.82C36.37 30.56 35.96 31.56 35.96 32.6L32.94 32.6L32.94 16.33L41.31 16.4L44.45 23.37L45.71 23.37L46.69 32.58L43.81 32.6Z" fill="#000000" fill-opacity="0.200000" fill-rule="nonzero"/>
	<path id="Vector" d="M39.89 28.95C39.11 28.95 38.36 29.18 37.71 29.61C37.07 30.04 36.57 30.65 36.27 31.36C35.97 32.08 35.9 32.86 36.04 33.62C36.19 34.38 36.56 35.08 37.11 35.62C37.65 36.17 38.35 36.55 39.1 36.7C39.86 36.86 40.65 36.78 41.36 36.49C42.08 36.2 42.69 35.7 43.13 35.06C43.56 34.42 43.79 33.67 43.8 32.9C43.8 31.86 43.39 30.86 42.66 30.12C41.92 29.38 40.93 28.96 39.89 28.95ZM14.7 28.95C13.93 28.95 13.17 29.18 12.53 29.61C11.88 30.04 11.38 30.65 11.08 31.37C10.79 32.08 10.71 32.87 10.86 33.63C11.01 34.39 11.39 35.09 11.93 35.64C12.48 36.18 13.18 36.56 13.94 36.71C14.7 36.86 15.48 36.78 16.2 36.48C16.91 36.19 17.53 35.69 17.96 35.04C18.39 34.4 18.62 33.64 18.62 32.87C18.61 31.83 18.19 30.84 17.46 30.11C16.73 29.37 15.74 28.96 14.7 28.95Z" fill="#FFFFFF" fill-opacity="1.000000" fill-rule="nonzero"/>
	<path id="Vector" d="M3.14 22.32C2.95 22.32 2.76 22.24 2.62 22.1C2.48 21.97 2.41 21.78 2.41 21.59C2.41 21.39 2.48 21.2 2.62 21.07C2.76 20.93 2.95 20.85 3.14 20.85L6.77 20.85C6.96 20.85 7.15 20.93 7.29 21.07C7.43 21.2 7.5 21.39 7.5 21.59C7.5 21.78 7.43 21.97 7.29 22.1C7.15 22.24 6.96 22.32 6.77 22.32L3.14 22.32ZM6.77 26.05C6.96 26.05 7.15 25.97 7.29 25.83C7.43 25.69 7.5 25.51 7.5 25.31C7.5 25.12 7.43 24.93 7.29 24.79C7.15 24.65 6.96 24.58 6.77 24.58L0.96 24.58C0.77 24.58 0.58 24.65 0.44 24.79C0.3 24.93 0.23 25.12 0.23 25.31C0.23 25.51 0.3 25.69 0.44 25.83C0.58 25.97 0.77 26.05 0.96 26.05L6.77 26.05ZM45.18 33.88L45.22 33.63L46.76 33.63C46.87 33.63 46.97 33.61 47.06 33.57C47.15 33.53 47.24 33.47 47.31 33.39C47.37 33.32 47.42 33.23 47.45 33.13C47.49 33.04 47.49 32.94 47.48 32.84L46.5 23.24C46.49 23.06 46.4 22.89 46.27 22.77C46.14 22.65 45.97 22.58 45.79 22.58L44.94 22.58L42.19 16.22C42.13 16.09 42.04 15.98 41.92 15.9C41.8 15.82 41.66 15.78 41.52 15.78L33.79 15.78L33.79 11.11C33.79 10.92 33.71 10.74 33.57 10.6C33.44 10.46 33.25 10.39 33.06 10.39L5.02 10.39C4.82 10.39 4.64 10.46 4.5 10.6C4.37 10.74 4.29 10.92 4.29 11.11L4.29 17.14L0.96 17.14C0.77 17.14 0.58 17.22 0.44 17.36C0.3 17.5 0.23 17.68 0.23 17.88C0.23 18.07 0.3 18.26 0.44 18.4C0.58 18.53 0.77 18.61 0.96 18.61L5.02 18.61C5.21 18.61 5.39 18.54 5.53 18.4C5.67 18.26 5.74 18.08 5.74 17.89L5.74 11.83L32.35 11.83L32.35 32.16L20.39 32.16L20.34 32.16L20.04 32.16L20 31.92C19.77 30.67 19.12 29.55 18.14 28.74C17.17 27.93 15.94 27.49 14.67 27.5C13.41 27.5 12.18 27.96 11.22 28.78C10.25 29.6 9.61 30.73 9.4 31.98L9.34 32.34L8.99 32.2C8.91 32.17 8.82 32.15 8.73 32.16L5.74 32.16L5.74 28.77C5.74 28.58 5.67 28.4 5.53 28.26C5.4 28.12 5.22 28.05 5.03 28.04L5 28.04C4.81 28.05 4.64 28.13 4.51 28.27C4.38 28.4 4.31 28.58 4.31 28.76L4.31 32.89C4.31 33.08 4.38 33.26 4.51 33.4C4.65 33.54 4.83 33.62 5.02 33.63L8.73 33.63C8.82 33.62 8.91 33.61 8.99 33.57L9.33 33.44L9.39 33.8C9.6 35.05 10.24 36.19 11.21 37.01C12.17 37.83 13.4 38.29 14.67 38.29C15.94 38.3 17.17 37.86 18.14 37.05C19.12 36.23 19.77 35.1 20 33.86L20.04 33.62L20.28 33.62C20.33 33.62 20.37 33.62 20.34 33.62L34.54 33.62L34.58 33.86C34.8 35.1 35.46 36.22 36.43 37.03C37.39 37.83 38.62 38.28 39.88 38.28C41.14 38.28 42.36 37.83 43.33 37.03C44.29 36.22 44.95 35.1 45.17 33.86L45.18 33.88ZM43.81 32.9C43.81 33.67 43.57 34.42 43.14 35.06C42.71 35.7 42.09 36.2 41.38 36.49C40.66 36.78 39.88 36.86 39.12 36.7C38.36 36.55 37.67 36.17 37.12 35.62C36.58 35.08 36.21 34.38 36.06 33.62C35.91 32.86 35.99 32.08 36.29 31.36C36.58 30.65 37.08 30.04 37.73 29.61C38.37 29.18 39.13 28.95 39.9 28.95C40.94 28.96 41.94 29.38 42.67 30.12C43.41 30.85 43.82 31.85 43.82 32.9L43.81 32.9ZM18.64 32.9C18.64 33.67 18.41 34.43 17.98 35.07C17.55 35.72 16.93 36.22 16.22 36.51C15.5 36.81 14.72 36.89 13.96 36.74C13.2 36.58 12.5 36.21 11.95 35.66C11.41 35.12 11.03 34.42 10.88 33.66C10.73 32.9 10.81 32.11 11.1 31.4C11.4 30.68 11.9 30.07 12.55 29.64C13.19 29.21 13.95 28.98 14.72 28.98C15.76 28.99 16.75 29.4 17.48 30.13C18.21 30.86 18.63 31.85 18.64 32.89L18.64 32.9ZM34.58 31.92L34.54 32.16L33.8 32.16L33.8 17.23L41.05 17.23L43.81 23.59C43.87 23.72 43.96 23.83 44.08 23.9C44.2 23.98 44.34 24.02 44.48 24.02L45.13 24.02L45.97 32.16L45.22 32.16L45.18 31.92C44.96 30.68 44.3 29.55 43.33 28.75C42.37 27.94 41.15 27.5 39.88 27.5C38.62 27.5 37.4 27.94 36.43 28.75C35.47 29.55 34.81 30.68 34.59 31.92L34.58 31.92Z" fill="#343434" fill-opacity="1.000000" fill-rule="nonzero"/>
</svg>
