<svg width="48.000000" height="48.000000" viewBox="0 0 48 48" fill="none" xmlns="http://www.w3.org/2000/svg" xmlns:xlink="http://www.w3.org/1999/xlink">
	<desc>
			Created with Pixso.
	</desc>
	<defs/>
	<path id="Vector" d="M42.99 27.86C42.99 31.6 41.88 35.25 39.81 38.36C37.73 41.46 34.78 43.88 31.33 45.31C27.88 46.74 24.08 47.12 20.41 46.39C16.75 45.66 13.38 43.86 10.74 41.22C8.1 38.58 6.3 35.21 5.57 31.54C4.84 27.88 5.21 24.08 6.64 20.63C8.07 17.18 10.49 14.23 13.6 12.15C16.71 10.07 20.36 8.97 24.1 8.97C26.58 8.97 29.04 9.45 31.33 10.4C33.62 11.35 35.7 12.75 37.46 14.5C39.21 16.25 40.6 18.34 41.55 20.63C42.5 22.92 42.99 25.38 42.99 27.86Z" fill="#FFFFFF" fill-opacity="1.000000" fill-rule="nonzero"/>
	<path id="Vector" d="M24.1 41.07C31.39 41.07 37.31 35.15 37.31 27.86C37.31 20.56 31.39 14.65 24.1 14.65C16.8 14.65 10.89 20.56 10.89 27.86C10.89 35.15 16.8 41.07 24.1 41.07Z" fill="#000000" fill-opacity="0.200000" fill-rule="nonzero"/>
	<path id="Vector" d="M46.81 19.71L46.81 12C46.79 11.6 46.69 11.2 46.51 10.84C46.33 10.48 46.09 10.16 45.78 9.89C45.78 9.89 34.69 1.89 33.97 1.89L14.06 1.89C13.33 1.89 2.44 9.88 2.44 9.88C2.13 10.15 1.88 10.47 1.7 10.84C1.53 11.2 1.42 11.59 1.4 12L1.4 19.71C1.41 20.05 1.55 20.39 1.79 20.63C2.04 20.88 2.37 21.02 2.72 21.02L13.05 18.38C13.4 18.37 13.72 18.23 13.96 17.99C14.2 17.74 14.34 17.41 14.34 17.07C14.34 17.07 13.53 14.31 14.41 13.45C17.9 10.05 30.34 10.07 33.78 13.45C34.65 14.31 33.85 17.04 33.85 17.04C33.85 17.22 33.88 17.39 33.95 17.54C34.02 17.7 34.11 17.85 34.24 17.97C34.36 18.09 34.5 18.19 34.66 18.25C34.82 18.31 34.99 18.35 35.16 18.35L45.5 21C45.84 20.99 46.17 20.86 46.42 20.62C46.66 20.38 46.8 20.05 46.81 19.71Z" fill="#FFDD00" fill-opacity="1.000000" fill-rule="nonzero"/>
	<path id="Vector" d="M40.58 38.76L39.13 37.8C40.59 35.6 41.54 33.1 41.93 30.49C42.32 27.88 42.13 25.22 41.37 22.69L43.05 22.19C43.59 24.02 43.86 25.92 43.86 27.84C43.88 31.72 42.74 35.53 40.58 38.76ZM29.88 46.81L29.37 45.15C27.66 45.66 25.88 45.93 24.1 45.93C21.29 45.93 18.52 45.27 16.01 44.01C13.5 42.76 11.32 40.93 9.64 38.68C7.96 36.43 6.83 33.82 6.34 31.05C5.85 28.29 6.01 25.44 6.81 22.75L5.13 22.25C4.61 24.07 4.34 25.96 4.33 27.86C4.33 30.95 5.06 34 6.45 36.77C7.84 39.53 9.86 41.93 12.35 43.77C14.84 45.61 17.73 46.83 20.78 47.35C23.83 47.88 26.96 47.67 29.91 46.76L29.88 46.81ZM38.46 41.48L37.19 40.32C35.71 41.88 33.97 43.16 32.05 44.11L32.82 45.68C34.94 44.62 36.85 43.18 38.46 41.44L38.46 41.48ZM13.18 19.24C13.72 19.22 14.22 18.99 14.6 18.6C14.8 18.4 14.96 18.16 15.07 17.9C15.18 17.64 15.24 17.35 15.24 17.07L15.24 16.82C14.9 15.94 14.84 14.98 15.07 14.07C18.21 10.98 30.08 10.99 33.22 14.07C33.45 14.97 33.4 15.93 33.07 16.8L33.07 17.04C33.07 17.6 33.28 18.14 33.66 18.54C34.05 18.95 34.57 19.19 35.13 19.22L45.37 21.83L45.58 21.83C46.16 21.82 46.71 21.59 47.12 21.19C47.33 20.99 47.49 20.75 47.6 20.49C47.71 20.22 47.77 19.93 47.76 19.65L47.76 12.01C47.75 11.47 47.61 10.93 47.38 10.45C47.14 9.96 46.8 9.53 46.38 9.18C35.07 1.04 34.38 1.04 34.06 1.04L14.06 1.04C13.73 1.04 13.05 1.04 1.89 9.18C1.48 9.53 1.14 9.96 0.9 10.44C0.66 10.92 0.53 11.45 0.5 11.99L0.5 19.69C0.5 19.98 0.56 20.27 0.67 20.54C0.78 20.81 0.94 21.05 1.15 21.26C1.35 21.46 1.6 21.62 1.87 21.73C2.14 21.84 2.43 21.9 2.72 21.89L2.82 21.89L13.18 19.24ZM22.7 2.77L33.85 2.77C34.86 3.23 40.42 7.09 45.26 10.58C45.66 10.95 45.91 11.46 45.94 12.01L45.94 19.71C45.94 19.76 45.93 19.82 45.91 19.88C45.89 19.93 45.85 19.98 45.81 20.02C45.75 20.08 45.67 20.12 45.59 20.14L35.38 17.53L35.18 17.53C35.08 17.53 34.98 17.5 34.9 17.44C34.82 17.38 34.77 17.29 34.75 17.19C34.99 16.29 35.49 13.96 34.41 12.88C30.65 9.17 17.56 9.16 13.81 12.88C12.71 13.96 13.21 16.3 13.47 17.22C13.45 17.3 13.41 17.37 13.35 17.43C13.32 17.47 13.27 17.51 13.21 17.53C13.16 17.56 13.1 17.57 13.04 17.57L2.58 20.19C2.48 20.17 2.39 20.12 2.32 20.04C2.26 19.96 2.22 19.86 2.22 19.76L2.22 12C2.26 11.46 2.5 10.96 2.9 10.59C6.99 7.59 13.09 3.26 14.16 2.77L22.7 2.77ZM14.23 15.42L13.81 13.72L1.17 16.88L1.55 18.58L14.23 15.42ZM47.01 17.08L34.36 13.96L33.94 15.65L46.59 18.77L47.01 17.08ZM16.36 27.98L14.55 29.83L14.55 30.86L18.9 30.86L18.9 29.62L16.47 29.62L17.63 28.46C17.97 28.11 18.27 27.72 18.53 27.3C18.69 27.02 18.77 26.71 18.77 26.39C18.78 26.13 18.73 25.87 18.63 25.63C18.52 25.39 18.37 25.18 18.17 25.01C17.73 24.69 17.2 24.55 16.67 24.61C16.21 24.6 15.76 24.71 15.37 24.95C14.98 25.22 14.66 25.56 14.41 25.96L15.58 26.61C15.92 26.07 16.28 25.79 16.68 25.79C16.78 25.79 16.87 25.8 16.96 25.84C17.05 25.87 17.13 25.93 17.19 26C17.26 26.06 17.31 26.14 17.35 26.23C17.39 26.32 17.4 26.41 17.4 26.51C17.39 26.74 17.31 26.96 17.17 27.15C16.92 27.46 16.65 27.76 16.36 28.03L16.36 27.98ZM21.32 28.21L23.4 24.72L21.88 24.72L19.69 28.36L19.69 29.4L22.17 29.4L22.17 30.87L23.48 30.87L23.48 29.4L24.18 29.4L24.18 28.24L23.48 28.24L23.48 27.16L22.17 27.16L22.17 28.21L21.32 28.21ZM24.81 31.85L26.05 31.85L29.75 23.78L28.5 23.78L24.81 31.85ZM31.68 26.69L31.68 25.88L33.22 25.88L30.9 30.86L32.4 30.86L34.88 25.74L34.88 24.72L30.43 24.72L30.43 26.7L31.68 26.69Z" fill="#343434" fill-opacity="1.000000" fill-rule="nonzero"/>
</svg>
